<svg 
width="800" height="500"
viewBox="800 500" 
xmlns="http://www.w3.org/2000/svg">

<rect x="0" y="0" width="160" height="500" stroke="#25374B" stroke-width="0" fill="lavender" />

<text x="20" y="20" style="font-family:Verdana; font-size:12px; color:#000000; overflow:visible; fill:#25374B; stroke-width:0.52; text-anchor:middle;">Juara</text>
<text x="20" y="35" style="font-family:Verdana; font-size:14px; color:#000000; overflow:visible; fill:#25374B; stroke-width:0.52; text-anchor:middle;">1</text>

<text x="80" y="20" style="font-family:Verdana; font-size:12px; color:#000000; overflow:visible; fill:#25374B; stroke-width:0.52; text-anchor:middle;">Juara</text>
<text x="80" y="35" style="font-family:Verdana; font-size:14px; color:#000000; overflow:visible; fill:#25374B; stroke-width:0.52; text-anchor:middle;">2</text>

<text x="140" y="20" style="font-family:Verdana; font-size:12px; color:#000000; overflow:visible; fill:#25374B; stroke-width:0.52; text-anchor:middle;">Juara</text>
<text x="140" y="35" style="font-family:Verdana; font-size:14px; color:#000000; overflow:visible; fill:#25374B; stroke-width:0.52; text-anchor:middle;">3</text>

<!-- A1-J2 -->
<path d="M 15 60 L 75 60" stroke="#25374B" stroke-width=".25"/>
<path d="M 15 60 L 75 170" stroke="#25374B" stroke-width=".25"/>
<path d="M 15 60 L 75 280" stroke="#25374B" stroke-width=".25"/>
<path d="M 15 60 L 75 390" stroke="#25374B" stroke-width=".25"/>
<!-- AB-J3 -->
<path d="M 80 60 L 135 60" stroke="#25374B" stroke-width=".25"/>
<path d="M 80 60 L 135 95" stroke="#25374B" stroke-width=".25"/>
<path d="M 80 60 L 135 130" stroke="#25374B" stroke-width=".25"/>
<!-- AC-J3 -->
<path d="M 80 170 L 135 170" stroke="#25374B" stroke-width=".25"/>
<path d="M 80 170 L 135 205" stroke="#25374B" stroke-width=".25"/>
<path d="M 80 170 L 135 240" stroke="#25374B" stroke-width=".25"/>
<!-- AD-J3 -->
<path d="M 80 280 L 135 280" stroke="#25374B" stroke-width=".25"/>
<path d="M 80 280 L 135 315" stroke="#25374B" stroke-width=".25"/>
<path d="M 80 280 L 135 350" stroke="#25374B" stroke-width=".25"/>
<!-- AE-J3 -->
<path d="M 80 390 L 135 390" stroke="#25374B" stroke-width=".25"/>
<path d="M 80 390 L 135 425" stroke="#25374B" stroke-width=".25"/>
<path d="M 80 390 L 135 460" stroke="#25374B" stroke-width=".25"/>

<circle cx="20" cy="60" r="12.5" fill="#fff" stroke="#fff" stroke-width="2"/>
<text x="20" y="60" style="font-family:Verdana; font-size:15px; fill:#25374B; stroke-width:0.5; text-anchor:middle; dominant-baseline:middle;">A</text>

<circle cx="80" cy="60" r="12.5" fill="#fff" stroke="#fff" stroke-width="2"/>
<text x="80" y="60" style="font-family:Verdana; font-size:15px; fill:#25374B; stroke-width:0.5; text-anchor:middle; dominant-baseline:middle;">B</text>
<circle cx="80" cy="170" r="12.5" fill="#fff" stroke="#fff" stroke-width="2"/>
<text x="80" y="170" style="font-family:Verdana; font-size:15px; fill:#25374B; stroke-width:0.5; text-anchor:middle; dominant-baseline:middle;">C</text>
<circle cx="80" cy="280" r="12.5" fill="#fff" stroke="#fff" stroke-width="2"/>
<text x="80" y="280" style="font-family:Verdana; font-size:15px; fill:#25374B; stroke-width:0.5; text-anchor:middle; dominant-baseline:middle;">D</text>
<circle cx="80" cy="390" r="12.5" fill="#fff" stroke="#fff" stroke-width="2"/>
<text x="80" y="390" style="font-family:Verdana; font-size:15px; fill:#25374B; stroke-width:0.5; text-anchor:middle; dominant-baseline:middle;">E</text>

<!-- AB-J3 -->
<circle cx="135" cy="60" r="12.5" fill="#fff" stroke="#fff" stroke-width="2"/>
<text x="135" y="60" style="font-family:Verdana; font-size:15px; fill:#25374B; stroke-width:0.5; text-anchor:middle; dominant-baseline:middle;">C</text>
<circle cx="135" cy="95" r="12.5" fill="#fff" stroke="#fff" stroke-width="2"/>
<text x="135" y="95" style="font-family:Verdana; font-size:15px; fill:#25374B; stroke-width:0.5; text-anchor:middle; dominant-baseline:middle;">D</text>
<circle cx="135" cy="130" r="12.5" fill="#fff" stroke="#fff" stroke-width="2"/>
<text x="135" y="130" style="font-family:Verdana; font-size:15px; fill:#25374B; stroke-width:0.5; text-anchor:middle; dominant-baseline:middle;">E</text>

<!-- AC-J3 -->
<circle cx="135" cy="170" r="12.5" fill="#fff" stroke="#fff" stroke-width="2"/>
<text x="135" y="170" style="font-family:Verdana; font-size:15px; fill:#25374B; stroke-width:0.5; text-anchor:middle; dominant-baseline:middle;">B</text>
<circle cx="135" cy="205" r="12.5" fill="#fff" stroke="#fff" stroke-width="2"/>
<text x="135" y="205" style="font-family:Verdana; font-size:15px; fill:#25374B; stroke-width:0.5; text-anchor:middle; dominant-baseline:middle;">D</text>
<circle cx="135" cy="240" r="12.5" fill="#fff" stroke="#fff" stroke-width="2"/>
<text x="135" y="240" style="font-family:Verdana; font-size:15px; fill:#25374B; stroke-width:0.5; text-anchor:middle; dominant-baseline:middle;">E</text>

<!-- AD-J3 -->
<circle cx="135" cy="280" r="12.5" fill="#fff" stroke="#fff" stroke-width="2"/>
<text x="135" y="280" style="font-family:Verdana; font-size:15px; fill:#25374B; stroke-width:0.5; text-anchor:middle; dominant-baseline:middle;">B</text>
<circle cx="135" cy="315" r="12.5" fill="#fff" stroke="#fff" stroke-width="2"/>
<text x="135" y="315" style="font-family:Verdana; font-size:15px; fill:#25374B; stroke-width:0.5; text-anchor:middle; dominant-baseline:middle;">C</text>
<circle cx="135" cy="350" r="12.5" fill="#fff" stroke="#fff" stroke-width="2"/>
<text x="135" y="350" style="font-family:Verdana; font-size:15px; fill:#25374B; stroke-width:0.5; text-anchor:middle; dominant-baseline:middle;">E</text>

<!-- AE-J3 -->
<circle cx="135" cy="390" r="12.5" fill="#fff" stroke="#fff" stroke-width="2"/>
<text x="135" y="390" style="font-family:Verdana; font-size:15px; fill:#25374B; stroke-width:0.5; text-anchor:middle; dominant-baseline:middle;">B</text>
<circle cx="135" cy="425" r="12.5" fill="#fff" stroke="#fff" stroke-width="2"/>
<text x="135" y="425" style="font-family:Verdana; font-size:15px; fill:#25374B; stroke-width:0.5; text-anchor:middle; dominant-baseline:middle;">C</text>
<circle cx="135" cy="460" r="12.5" fill="#fff" stroke="#fff" stroke-width="2"/>
<text x="135" y="460" style="font-family:Verdana; font-size:15px; fill:#25374B; stroke-width:0.5; text-anchor:middle; dominant-baseline:middle;">D</text>



<rect x="160" y="0" width="160" height="500" stroke="#25374B" stroke-width="0" fill="aliceblue" />

<rect x="320" y="0" width="160" height="500" stroke="#25374B" stroke-width="0" fill="antiquewhite" />

<rect x="480" y="0" width="160" height="500" stroke="#25374B" stroke-width="0" fill="azure" />

<rect x="640" y="0" width="160" height="500" stroke="#25374B" stroke-width="0" fill="beige" />

<text x="180" y="20" style="font-family:Verdana; font-size:12px; color:#000000; overflow:visible; fill:#25374B; stroke-width:0.52; text-anchor:middle;">Juara</text>
<text x="180" y="35" style="font-family:Verdana; font-size:14px; color:#000000; overflow:visible; fill:#25374B; stroke-width:0.52; text-anchor:middle;">1</text>

<text x="240" y="20" style="font-family:Verdana; font-size:12px; color:#000000; overflow:visible; fill:#25374B; stroke-width:0.52; text-anchor:middle;">Juara</text>
<text x="240" y="35" style="font-family:Verdana; font-size:14px; color:#000000; overflow:visible; fill:#25374B; stroke-width:0.52; text-anchor:middle;">2</text>

<text x="300" y="20" style="font-family:Verdana; font-size:12px; color:#000000; overflow:visible; fill:#25374B; stroke-width:0.52; text-anchor:middle;">Juara</text>
<text x="300" y="35" style="font-family:Verdana; font-size:14px; color:#000000; overflow:visible; fill:#25374B; stroke-width:0.52; text-anchor:middle;">3</text>

<!-- B1-J2 -->
<path d="M 175 60 L 235 60" stroke="#25374B" stroke-width=".25"/>
<path d="M 175 60 L 235 170" stroke="#25374B" stroke-width=".25"/>
<path d="M 175 60 L 235 280" stroke="#25374B" stroke-width=".25"/>
<path d="M 175 60 L 235 390" stroke="#25374B" stroke-width=".25"/>
<!-- BA-J3 -->
<path d="M 240 60 L 295 60" stroke="#25374B" stroke-width=".25"/>
<path d="M 240 60 L 295 95" stroke="#25374B" stroke-width=".25"/>
<path d="M 240 60 L 295 130" stroke="#25374B" stroke-width=".25"/>
<!-- BC-J3 -->
<!-- <path d="M 80 170 L 135 170" stroke="#25374B" stroke-width=".25"/>
<path d="M 80 170 L 135 205" stroke="#25374B" stroke-width=".25"/>
<path d="M 80 170 L 135 240" stroke="#25374B" stroke-width=".25"/> -->
<!-- BD-J3 -->
<!-- <path d="M 80 280 L 135 280" stroke="#25374B" stroke-width=".25"/>
<path d="M 80 280 L 135 315" stroke="#25374B" stroke-width=".25"/>
<path d="M 80 280 L 135 350" stroke="#25374B" stroke-width=".25"/> -->
<!-- BE-J3 -->
<!-- <path d="M 80 390 L 135 390" stroke="#25374B" stroke-width=".25"/>
<path d="M 80 390 L 135 425" stroke="#25374B" stroke-width=".25"/>
<path d="M 80 390 L 135 460" stroke="#25374B" stroke-width=".25"/> -->

<circle cx="180" cy="60" r="12.5" fill="#fff" stroke="#fff" stroke-width="2"/>
<text x="180" y="60" style="font-family:Verdana; font-size:15px; fill:#25374B; stroke-width:0.5; text-anchor:middle; dominant-baseline:middle;">B</text>

<circle cx="240" cy="60" r="12.5" fill="#fff" stroke="#fff" stroke-width="2"/>
<text x="240" y="60" style="font-family:Verdana; font-size:15px; fill:#25374B; stroke-width:0.5; text-anchor:middle; dominant-baseline:middle;">A</text>
<circle cx="240" cy="170" r="12.5" fill="#fff" stroke="#fff" stroke-width="2"/>
<text x="240" y="170" style="font-family:Verdana; font-size:15px; fill:#25374B; stroke-width:0.5; text-anchor:middle; dominant-baseline:middle;">C</text>
<circle cx="240" cy="280" r="12.5" fill="#fff" stroke="#fff" stroke-width="2"/>
<text x="240" y="280" style="font-family:Verdana; font-size:15px; fill:#25374B; stroke-width:0.5; text-anchor:middle; dominant-baseline:middle;">D</text>
<circle cx="240" cy="390" r="12.5" fill="#fff" stroke="#fff" stroke-width="2"/>
<text x="240" y="390" style="font-family:Verdana; font-size:15px; fill:#25374B; stroke-width:0.5; text-anchor:middle; dominant-baseline:middle;">E</text>

<!-- BA-J3 -->
<circle cx="295" cy="60" r="12.5" fill="#fff" stroke="#fff" stroke-width="2"/>
<text x="295" y="60" style="font-family:Verdana; font-size:15px; fill:#25374B; stroke-width:0.5; text-anchor:middle; dominant-baseline:middle;">C</text>
<circle cx="295" cy="95" r="12.5" fill="#fff" stroke="#fff" stroke-width="2"/>
<text x="295" y="95" style="font-family:Verdana; font-size:15px; fill:#25374B; stroke-width:0.5; text-anchor:middle; dominant-baseline:middle;">D</text>
<circle cx="295" cy="130" r="12.5" fill="#fff" stroke="#fff" stroke-width="2"/>
<text x="295" y="130" style="font-family:Verdana; font-size:15px; fill:#25374B; stroke-width:0.5; text-anchor:middle; dominant-baseline:middle;">E</text>

<!-- AC-J3 -->
<circle cx="135" cy="170" r="12.5" fill="#fff" stroke="#fff" stroke-width="2"/>
<text x="135" y="170" style="font-family:Verdana; font-size:15px; fill:#25374B; stroke-width:0.5; text-anchor:middle; dominant-baseline:middle;">B</text>
<circle cx="135" cy="205" r="12.5" fill="#fff" stroke="#fff" stroke-width="2"/>
<text x="135" y="205" style="font-family:Verdana; font-size:15px; fill:#25374B; stroke-width:0.5; text-anchor:middle; dominant-baseline:middle;">D</text>
<circle cx="135" cy="240" r="12.5" fill="#fff" stroke="#fff" stroke-width="2"/>
<text x="135" y="240" style="font-family:Verdana; font-size:15px; fill:#25374B; stroke-width:0.5; text-anchor:middle; dominant-baseline:middle;">E</text>

<!-- AD-J3 -->
<circle cx="135" cy="280" r="12.5" fill="#fff" stroke="#fff" stroke-width="2"/>
<text x="135" y="280" style="font-family:Verdana; font-size:15px; fill:#25374B; stroke-width:0.5; text-anchor:middle; dominant-baseline:middle;">B</text>
<circle cx="135" cy="315" r="12.5" fill="#fff" stroke="#fff" stroke-width="2"/>
<text x="135" y="315" style="font-family:Verdana; font-size:15px; fill:#25374B; stroke-width:0.5; text-anchor:middle; dominant-baseline:middle;">C</text>
<circle cx="135" cy="350" r="12.5" fill="#fff" stroke="#fff" stroke-width="2"/>
<text x="135" y="350" style="font-family:Verdana; font-size:15px; fill:#25374B; stroke-width:0.5; text-anchor:middle; dominant-baseline:middle;">E</text>

<!-- AE-J3 -->
<circle cx="135" cy="390" r="12.5" fill="#fff" stroke="#fff" stroke-width="2"/>
<text x="135" y="390" style="font-family:Verdana; font-size:15px; fill:#25374B; stroke-width:0.5; text-anchor:middle; dominant-baseline:middle;">B</text>
<circle cx="135" cy="425" r="12.5" fill="#fff" stroke="#fff" stroke-width="2"/>
<text x="135" y="425" style="font-family:Verdana; font-size:15px; fill:#25374B; stroke-width:0.5; text-anchor:middle; dominant-baseline:middle;">C</text>
<circle cx="135" cy="460" r="12.5" fill="#fff" stroke="#fff" stroke-width="2"/>
<text x="135" y="460" style="font-family:Verdana; font-size:15px; fill:#25374B; stroke-width:0.5; text-anchor:middle; dominant-baseline:middle;">D</text>




<path d="M 0 40 L 800 40" stroke="#25374B" stroke-width=".5" fill="none" />

</svg>
