<svg 
width="800" height="480"
viewBox="800 480" 
xmlns="http://www.w3.org/2000/svg">

<rect x="0" y="0" width="160" height="480" stroke="#25374B" stroke-width="0" fill="lavender" />

<text x="20" y="20" style="font-family:Verdana; font-size:12px; color:#000000; overflow:visible; fill:#25374B; stroke-width:0.52; text-anchor:middle;">Juara</text>
<text x="20" y="35" style="font-family:Verdana; font-size:14px; color:#000000; overflow:visible; fill:#25374B; stroke-width:0.52; text-anchor:middle;">1</text>

<text x="80" y="20" style="font-family:Verdana; font-size:12px; color:#000000; overflow:visible; fill:#25374B; stroke-width:0.52; text-anchor:middle;">Juara</text>
<text x="80" y="35" style="font-family:Verdana; font-size:14px; color:#000000; overflow:visible; fill:#25374B; stroke-width:0.52; text-anchor:middle;">2</text>

<text x="140" y="20" style="font-family:Verdana; font-size:12px; color:#000000; overflow:visible; fill:#25374B; stroke-width:0.52; text-anchor:middle;">Juara</text>
<text x="140" y="35" style="font-family:Verdana; font-size:14px; color:#000000; overflow:visible; fill:#25374B; stroke-width:0.52; text-anchor:middle;">3</text>

<!-- A1-J2 -->
<path d="M 15 60 L 75 60" stroke="#25374B" stroke-width=".25"/>
<path d="M 15 60 L 75 170" stroke="#25374B" stroke-width=".25"/>
<path d="M 15 60 L 75 280" stroke="#25374B" stroke-width=".25"/>
<path d="M 15 60 L 75 390" stroke="#25374B" stroke-width=".25"/>
<!-- AB-J3 -->
<path d="M 80 60 L 135 60" stroke="#25374B" stroke-width=".25"/>
<path d="M 80 60 L 135 95" stroke="#25374B" stroke-width=".25"/>
<path d="M 80 60 L 135 130" stroke="#25374B" stroke-width=".25"/>
<!-- AC-J3 -->
<path d="M 80 170 L 135 170" stroke="#25374B" stroke-width=".25"/>
<path d="M 80 170 L 135 205" stroke="#25374B" stroke-width=".25"/>
<path d="M 80 170 L 135 240" stroke="#25374B" stroke-width=".25"/>
<!-- AD-J3 -->
<path d="M 80 280 L 135 280" stroke="#25374B" stroke-width=".25"/>
<path d="M 80 280 L 135 315" stroke="#25374B" stroke-width=".25"/>
<path d="M 80 280 L 135 350" stroke="#25374B" stroke-width=".25"/>
<!-- AE-J3 -->
<path d="M 80 390 L 135 390" stroke="#25374B" stroke-width=".25"/>
<path d="M 80 390 L 135 425" stroke="#25374B" stroke-width=".25"/>
<path d="M 80 390 L 135 460" stroke="#25374B" stroke-width=".25"/>

<circle cx="20" cy="60" r="12.5" fill="#fff" stroke="#fff" stroke-width="2"/>
<text x="20" y="60" style="font-family:Verdana; font-size:15px; fill:#25374B; stroke-width:0.5; text-anchor:middle; dominant-baseline:middle;">A</text>

<circle cx="80" cy="60" r="12.5" fill="#fff" stroke="#fff" stroke-width="2"/>
<text x="80" y="60" style="font-family:Verdana; font-size:15px; fill:#25374B; stroke-width:0.5; text-anchor:middle; dominant-baseline:middle;">B</text>
<circle cx="80" cy="170" r="12.5" fill="#fff" stroke="#fff" stroke-width="2"/>
<text x="80" y="170" style="font-family:Verdana; font-size:15px; fill:#25374B; stroke-width:0.5; text-anchor:middle; dominant-baseline:middle;">C</text>
<circle cx="80" cy="280" r="12.5" fill="#fff" stroke="#fff" stroke-width="2"/>
<text x="80" y="280" style="font-family:Verdana; font-size:15px; fill:#25374B; stroke-width:0.5; text-anchor:middle; dominant-baseline:middle;">D</text>
<circle cx="80" cy="390" r="12.5" fill="#fff" stroke="#fff" stroke-width="2"/>
<text x="80" y="390" style="font-family:Verdana; font-size:15px; fill:#25374B; stroke-width:0.5; text-anchor:middle; dominant-baseline:middle;">E</text>

<!-- AB-J3 -->
<circle cx="140" cy="60" r="12.5" fill="#fff" stroke="#fff" stroke-width="2"/>
<text x="140" y="60" style="font-family:Verdana; font-size:15px; fill:#25374B; stroke-width:0.5; text-anchor:middle; dominant-baseline:middle;">C</text>
<circle cx="140" cy="95" r="12.5" fill="#fff" stroke="#fff" stroke-width="2"/>
<text x="140" y="95" style="font-family:Verdana; font-size:15px; fill:#25374B; stroke-width:0.5; text-anchor:middle; dominant-baseline:middle;">D</text>
<circle cx="140" cy="130" r="12.5" fill="#fff" stroke="#fff" stroke-width="2"/>
<text x="140" y="130" style="font-family:Verdana; font-size:15px; fill:#25374B; stroke-width:0.5; text-anchor:middle; dominant-baseline:middle;">E</text>

<!-- AC-J3 -->
<circle cx="140" cy="170" r="12.5" fill="#fff" stroke="#fff" stroke-width="2"/>
<text x="140" y="170" style="font-family:Verdana; font-size:15px; fill:#25374B; stroke-width:0.5; text-anchor:middle; dominant-baseline:middle;">B</text>
<circle cx="140" cy="205" r="12.5" fill="#fff" stroke="#fff" stroke-width="2"/>
<text x="140" y="205" style="font-family:Verdana; font-size:15px; fill:#25374B; stroke-width:0.5; text-anchor:middle; dominant-baseline:middle;">D</text>
<circle cx="140" cy="240" r="12.5" fill="#fff" stroke="#fff" stroke-width="2"/>
<text x="140" y="240" style="font-family:Verdana; font-size:15px; fill:#25374B; stroke-width:0.5; text-anchor:middle; dominant-baseline:middle;">E</text>

<!-- AD-J3 -->
<circle cx="140" cy="280" r="12.5" fill="#fff" stroke="#fff" stroke-width="2"/>
<text x="140" y="280" style="font-family:Verdana; font-size:15px; fill:#25374B; stroke-width:0.5; text-anchor:middle; dominant-baseline:middle;">B</text>
<circle cx="140" cy="315" r="12.5" fill="#fff" stroke="#fff" stroke-width="2"/>
<text x="140" y="315" style="font-family:Verdana; font-size:15px; fill:#25374B; stroke-width:0.5; text-anchor:middle; dominant-baseline:middle;">C</text>
<circle cx="140" cy="350" r="12.5" fill="#fff" stroke="#fff" stroke-width="2"/>
<text x="140" y="350" style="font-family:Verdana; font-size:15px; fill:#25374B; stroke-width:0.5; text-anchor:middle; dominant-baseline:middle;">E</text>

<!-- AE-J3 -->
<circle cx="140" cy="390" r="12.5" fill="#fff" stroke="#fff" stroke-width="2"/>
<text x="140" y="390" style="font-family:Verdana; font-size:15px; fill:#25374B; stroke-width:0.5; text-anchor:middle; dominant-baseline:middle;">B</text>
<circle cx="140" cy="425" r="12.5" fill="#fff" stroke="#fff" stroke-width="2"/>
<text x="140" y="425" style="font-family:Verdana; font-size:15px; fill:#25374B; stroke-width:0.5; text-anchor:middle; dominant-baseline:middle;">C</text>
<circle cx="140" cy="460" r="12.5" fill="#fff" stroke="#fff" stroke-width="2"/>
<text x="140" y="460" style="font-family:Verdana; font-size:15px; fill:#25374B; stroke-width:0.5; text-anchor:middle; dominant-baseline:middle;">D</text>



<rect x="160" y="0" width="160" height="480" stroke="#25374B" stroke-width="0" fill="aliceblue" />

<rect x="320" y="0" width="160" height="480" stroke="#25374B" stroke-width="0" fill="antiquewhite" />

<rect x="480" y="0" width="160" height="480" stroke="#25374B" stroke-width="0" fill="azure" />

<rect x="640" y="0" width="160" height="480" stroke="#25374B" stroke-width="0" fill="beige" />

<text x="180" y="20" style="font-family:Verdana; font-size:12px; color:#000000; overflow:visible; fill:#25374B; stroke-width:0.52; text-anchor:middle;">Juara</text>
<text x="180" y="35" style="font-family:Verdana; font-size:14px; color:#000000; overflow:visible; fill:#25374B; stroke-width:0.52; text-anchor:middle;">1</text>

<text x="240" y="20" style="font-family:Verdana; font-size:12px; color:#000000; overflow:visible; fill:#25374B; stroke-width:0.52; text-anchor:middle;">Juara</text>
<text x="240" y="35" style="font-family:Verdana; font-size:14px; color:#000000; overflow:visible; fill:#25374B; stroke-width:0.52; text-anchor:middle;">2</text>

<text x="300" y="20" style="font-family:Verdana; font-size:12px; color:#000000; overflow:visible; fill:#25374B; stroke-width:0.52; text-anchor:middle;">Juara</text>
<text x="300" y="35" style="font-family:Verdana; font-size:14px; color:#000000; overflow:visible; fill:#25374B; stroke-width:0.52; text-anchor:middle;">3</text>

<!-- B1-J2 -->
<path d="M 175 60 L 235 60" stroke="#25374B" stroke-width=".25"/>
<path d="M 175 60 L 235 170" stroke="#25374B" stroke-width=".25"/>
<path d="M 175 60 L 235 280" stroke="#25374B" stroke-width=".25"/>
<path d="M 175 60 L 235 390" stroke="#25374B" stroke-width=".25"/>
<!-- BA-J3 -->
<path d="M 240 60 L 295 60" stroke="#25374B" stroke-width=".25"/>
<path d="M 240 60 L 295 95" stroke="#25374B" stroke-width=".25"/>
<path d="M 240 60 L 295 130" stroke="#25374B" stroke-width=".25"/>
<!-- BC-J3 -->
<path d="M 240 170 L 295 170" stroke="#25374B" stroke-width=".25"/>
<path d="M 240 170 L 295 205" stroke="#25374B" stroke-width=".25"/>
<path d="M 240 170 L 295 240" stroke="#25374B" stroke-width=".25"/>
<!-- BD-J3 -->
<path d="M 240 280 L 295 280" stroke="#25374B" stroke-width=".25"/>
<path d="M 240 280 L 295 315" stroke="#25374B" stroke-width=".25"/>
<path d="M 240 280 L 295 350" stroke="#25374B" stroke-width=".25"/>
<!-- BE-J3 -->
<path d="M 240 390 L 295 390" stroke="#25374B" stroke-width=".25"/>
<path d="M 240 390 L 295 425" stroke="#25374B" stroke-width=".25"/>
<path d="M 240 390 L 295 460" stroke="#25374B" stroke-width=".25"/>

<circle cx="180" cy="60" r="12.5" fill="#fff" stroke="#fff" stroke-width="2"/>
<text x="180" y="60" style="font-family:Verdana; font-size:15px; fill:#25374B; stroke-width:0.5; text-anchor:middle; dominant-baseline:middle;">B</text>

<circle cx="240" cy="60" r="12.5" fill="#fff" stroke="#fff" stroke-width="2"/>
<text x="240" y="60" style="font-family:Verdana; font-size:15px; fill:#25374B; stroke-width:0.5; text-anchor:middle; dominant-baseline:middle;">A</text>
<circle cx="240" cy="170" r="12.5" fill="#fff" stroke="#fff" stroke-width="2"/>
<text x="240" y="170" style="font-family:Verdana; font-size:15px; fill:#25374B; stroke-width:0.5; text-anchor:middle; dominant-baseline:middle;">C</text>
<circle cx="240" cy="280" r="12.5" fill="#fff" stroke="#fff" stroke-width="2"/>
<text x="240" y="280" style="font-family:Verdana; font-size:15px; fill:#25374B; stroke-width:0.5; text-anchor:middle; dominant-baseline:middle;">D</text>
<circle cx="240" cy="390" r="12.5" fill="#fff" stroke="#fff" stroke-width="2"/>
<text x="240" y="390" style="font-family:Verdana; font-size:15px; fill:#25374B; stroke-width:0.5; text-anchor:middle; dominant-baseline:middle;">E</text>

<!-- BA-J3 -->
<circle cx="300" cy="60" r="12.5" fill="#fff" stroke="#fff" stroke-width="2"/>
<text x="300" y="60" style="font-family:Verdana; font-size:15px; fill:#25374B; stroke-width:0.5; text-anchor:middle; dominant-baseline:middle;">C</text>
<circle cx="300" cy="95" r="12.5" fill="#fff" stroke="#fff" stroke-width="2"/>
<text x="300" y="95" style="font-family:Verdana; font-size:15px; fill:#25374B; stroke-width:0.5; text-anchor:middle; dominant-baseline:middle;">D</text>
<circle cx="300" cy="130" r="12.5" fill="#fff" stroke="#fff" stroke-width="2"/>
<text x="300" y="130" style="font-family:Verdana; font-size:15px; fill:#25374B; stroke-width:0.5; text-anchor:middle; dominant-baseline:middle;">E</text>

<!-- BC-J3 -->
<circle cx="300" cy="170" r="12.5" fill="#fff" stroke="#fff" stroke-width="2"/>
<text x="300" y="170" style="font-family:Verdana; font-size:15px; fill:#25374B; stroke-width:0.5; text-anchor:middle; dominant-baseline:middle;">A</text>
<circle cx="300" cy="205" r="12.5" fill="#fff" stroke="#fff" stroke-width="2"/>
<text x="300" y="205" style="font-family:Verdana; font-size:15px; fill:#25374B; stroke-width:0.5; text-anchor:middle; dominant-baseline:middle;">D</text>
<circle cx="300" cy="240" r="12.5" fill="#fff" stroke="#fff" stroke-width="2"/>
<text x="300" y="240" style="font-family:Verdana; font-size:15px; fill:#25374B; stroke-width:0.5; text-anchor:middle; dominant-baseline:middle;">E</text>

<!-- BD-J3 -->
<circle cx="300" cy="280" r="12.5" fill="#fff" stroke="#fff" stroke-width="2"/>
<text x="300" y="280" style="font-family:Verdana; font-size:15px; fill:#25374B; stroke-width:0.5; text-anchor:middle; dominant-baseline:middle;">A</text>
<circle cx="300" cy="315" r="12.5" fill="#fff" stroke="#fff" stroke-width="2"/>
<text x="300" y="315" style="font-family:Verdana; font-size:15px; fill:#25374B; stroke-width:0.5; text-anchor:middle; dominant-baseline:middle;">C</text>
<circle cx="300" cy="350" r="12.5" fill="#fff" stroke="#fff" stroke-width="2"/>
<text x="300" y="350" style="font-family:Verdana; font-size:15px; fill:#25374B; stroke-width:0.5; text-anchor:middle; dominant-baseline:middle;">E</text>

<!-- BE-J3 -->
<circle cx="300" cy="390" r="12.5" fill="#fff" stroke="#fff" stroke-width="2"/>
<text x="300" y="390" style="font-family:Verdana; font-size:15px; fill:#25374B; stroke-width:0.5; text-anchor:middle; dominant-baseline:middle;">A</text>
<circle cx="300" cy="425" r="12.5" fill="#fff" stroke="#fff" stroke-width="2"/>
<text x="300" y="425" style="font-family:Verdana; font-size:15px; fill:#25374B; stroke-width:0.5; text-anchor:middle; dominant-baseline:middle;">C</text>
<circle cx="300" cy="460" r="12.5" fill="#fff" stroke="#fff" stroke-width="2"/>
<text x="300" y="460" style="font-family:Verdana; font-size:15px; fill:#25374B; stroke-width:0.5; text-anchor:middle; dominant-baseline:middle;">D</text>


<!-- C1 x+160 -->
<text x="340" y="20" style="font-family:Verdana; font-size:12px; color:#000000; overflow:visible; fill:#25374B; stroke-width:0.52; text-anchor:middle;">Juara</text>
<text x="340" y="35" style="font-family:Verdana; font-size:14px; color:#000000; overflow:visible; fill:#25374B; stroke-width:0.52; text-anchor:middle;">1</text>

<text x="400" y="20" style="font-family:Verdana; font-size:12px; color:#000000; overflow:visible; fill:#25374B; stroke-width:0.52; text-anchor:middle;">Juara</text>
<text x="400" y="35" style="font-family:Verdana; font-size:14px; color:#000000; overflow:visible; fill:#25374B; stroke-width:0.52; text-anchor:middle;">2</text>

<text x="460" y="20" style="font-family:Verdana; font-size:12px; color:#000000; overflow:visible; fill:#25374B; stroke-width:0.52; text-anchor:middle;">Juara</text>
<text x="460" y="35" style="font-family:Verdana; font-size:14px; color:#000000; overflow:visible; fill:#25374B; stroke-width:0.52; text-anchor:middle;">3</text>

<!-- C1-J2 -->
<path d="M 340 60 L 400 60" stroke="#25374B" stroke-width=".25"/>
<path d="M 340 60 L 400 170" stroke="#25374B" stroke-width=".25"/>
<path d="M 340 60 L 400 280" stroke="#25374B" stroke-width=".25"/>
<path d="M 340 60 L 400 390" stroke="#25374B" stroke-width=".25"/>
<!-- CA-J3 -->
<path d="M 400 60 L 460 60" stroke="#25374B" stroke-width=".25"/>
<path d="M 400 60 L 460 95" stroke="#25374B" stroke-width=".25"/>
<path d="M 400 60 L 460 130" stroke="#25374B" stroke-width=".25"/>
<!-- CB-J3 -->
<path d="M 400 170 L 460 170" stroke="#25374B" stroke-width=".25"/>
<path d="M 400 170 L 460 205" stroke="#25374B" stroke-width=".25"/>
<path d="M 400 170 L 460 240" stroke="#25374B" stroke-width=".25"/>
<!-- CD-J3 -->
<path d="M 400 280 L 460 280" stroke="#25374B" stroke-width=".25"/>
<path d="M 400 280 L 460 315" stroke="#25374B" stroke-width=".25"/>
<path d="M 400 280 L 460 350" stroke="#25374B" stroke-width=".25"/>
<!-- CE-J3 -->
<path d="M 400 390 L 460 390" stroke="#25374B" stroke-width=".25"/>
<path d="M 400 390 L 460 425" stroke="#25374B" stroke-width=".25"/>
<path d="M 400 390 L 460 460" stroke="#25374B" stroke-width=".25"/>

<circle cx="340" cy="60" r="12.5" fill="#fff" stroke="#fff" stroke-width="2"/>
<text x="340" y="60" style="font-family:Verdana; font-size:15px; fill:#25374B; stroke-width:0.5; text-anchor:middle; dominant-baseline:middle;">C</text>

<circle cx="400" cy="60" r="12.5" fill="#fff" stroke="#fff" stroke-width="2"/>
<text x="400" y="60" style="font-family:Verdana; font-size:15px; fill:#25374B; stroke-width:0.5; text-anchor:middle; dominant-baseline:middle;">A</text>
<circle cx="400" cy="170" r="12.5" fill="#fff" stroke="#fff" stroke-width="2"/>
<text x="400" y="170" style="font-family:Verdana; font-size:15px; fill:#25374B; stroke-width:0.5; text-anchor:middle; dominant-baseline:middle;">B</text>
<circle cx="400" cy="280" r="12.5" fill="#fff" stroke="#fff" stroke-width="2"/>
<text x="400" y="280" style="font-family:Verdana; font-size:15px; fill:#25374B; stroke-width:0.5; text-anchor:middle; dominant-baseline:middle;">D</text>
<circle cx="400" cy="390" r="12.5" fill="#fff" stroke="#fff" stroke-width="2"/>
<text x="400" y="390" style="font-family:Verdana; font-size:15px; fill:#25374B; stroke-width:0.5; text-anchor:middle; dominant-baseline:middle;">E</text>

<!-- CA-J3 -->
<circle cx="460" cy="60" r="12.5" fill="#fff" stroke="#fff" stroke-width="2"/>
<text x="460" y="60" style="font-family:Verdana; font-size:15px; fill:#25374B; stroke-width:0.5; text-anchor:middle; dominant-baseline:middle;">B</text>
<circle cx="460" cy="95" r="12.5" fill="#fff" stroke="#fff" stroke-width="2"/>
<text x="460" y="95" style="font-family:Verdana; font-size:15px; fill:#25374B; stroke-width:0.5; text-anchor:middle; dominant-baseline:middle;">D</text>
<circle cx="460" cy="130" r="12.5" fill="#fff" stroke="#fff" stroke-width="2"/>
<text x="460" y="130" style="font-family:Verdana; font-size:15px; fill:#25374B; stroke-width:0.5; text-anchor:middle; dominant-baseline:middle;">E</text>

<!-- CC-J3 -->
<circle cx="460" cy="170" r="12.5" fill="#fff" stroke="#fff" stroke-width="2"/>
<text x="460" y="170" style="font-family:Verdana; font-size:15px; fill:#25374B; stroke-width:0.5; text-anchor:middle; dominant-baseline:middle;">A</text>
<circle cx="460" cy="205" r="12.5" fill="#fff" stroke="#fff" stroke-width="2"/>
<text x="460" y="205" style="font-family:Verdana; font-size:15px; fill:#25374B; stroke-width:0.5; text-anchor:middle; dominant-baseline:middle;">D</text>
<circle cx="460" cy="240" r="12.5" fill="#fff" stroke="#fff" stroke-width="2"/>
<text x="460" y="240" style="font-family:Verdana; font-size:15px; fill:#25374B; stroke-width:0.5; text-anchor:middle; dominant-baseline:middle;">E</text>

<!-- CD-J3 -->
<circle cx="460" cy="280" r="12.5" fill="#fff" stroke="#fff" stroke-width="2"/>
<text x="460" y="280" style="font-family:Verdana; font-size:15px; fill:#25374B; stroke-width:0.5; text-anchor:middle; dominant-baseline:middle;">A</text>
<circle cx="460" cy="315" r="12.5" fill="#fff" stroke="#fff" stroke-width="2"/>
<text x="460" y="315" style="font-family:Verdana; font-size:15px; fill:#25374B; stroke-width:0.5; text-anchor:middle; dominant-baseline:middle;">B</text>
<circle cx="460" cy="350" r="12.5" fill="#fff" stroke="#fff" stroke-width="2"/>
<text x="460" y="350" style="font-family:Verdana; font-size:15px; fill:#25374B; stroke-width:0.5; text-anchor:middle; dominant-baseline:middle;">E</text>

<!-- CE-J3 -->
<circle cx="460" cy="390" r="12.5" fill="#fff" stroke="#fff" stroke-width="2"/>
<text x="460" y="390" style="font-family:Verdana; font-size:15px; fill:#25374B; stroke-width:0.5; text-anchor:middle; dominant-baseline:middle;">A</text>
<circle cx="460" cy="425" r="12.5" fill="#fff" stroke="#fff" stroke-width="2"/>
<text x="460" y="425" style="font-family:Verdana; font-size:15px; fill:#25374B; stroke-width:0.5; text-anchor:middle; dominant-baseline:middle;">B</text>
<circle cx="460" cy="460" r="12.5" fill="#fff" stroke="#fff" stroke-width="2"/>
<text x="460" y="460" style="font-family:Verdana; font-size:15px; fill:#25374B; stroke-width:0.5; text-anchor:middle; dominant-baseline:middle;">D</text>



<!-- D1 x+160 -->
<text x="500" y="20" style="font-family:Verdana; font-size:12px; color:#000000; overflow:visible; fill:#25374B; stroke-width:0.52; text-anchor:middle;">Juara</text>
<text x="500" y="35" style="font-family:Verdana; font-size:14px; color:#000000; overflow:visible; fill:#25374B; stroke-width:0.52; text-anchor:middle;">1</text>

<text x="560" y="20" style="font-family:Verdana; font-size:12px; color:#000000; overflow:visible; fill:#25374B; stroke-width:0.52; text-anchor:middle;">Juara</text>
<text x="560" y="35" style="font-family:Verdana; font-size:14px; color:#000000; overflow:visible; fill:#25374B; stroke-width:0.52; text-anchor:middle;">2</text>

<text x="620" y="20" style="font-family:Verdana; font-size:12px; color:#000000; overflow:visible; fill:#25374B; stroke-width:0.52; text-anchor:middle;">Juara</text>
<text x="620" y="35" style="font-family:Verdana; font-size:14px; color:#000000; overflow:visible; fill:#25374B; stroke-width:0.52; text-anchor:middle;">3</text>

<!-- D1-J2 -->
<path d="M 500 60 L 560 60" stroke="#25374B" stroke-width=".25"/>
<path d="M 500 60 L 560 170" stroke="#25374B" stroke-width=".25"/>
<path d="M 500 60 L 560 280" stroke="#25374B" stroke-width=".25"/>
<path d="M 500 60 L 560 390" stroke="#25374B" stroke-width=".25"/>
<!-- DA-J3 -->
<path d="M 560 60 L 620 60" stroke="#25374B" stroke-width=".25"/>
<path d="M 560 60 L 620 95" stroke="#25374B" stroke-width=".25"/>
<path d="M 560 60 L 620 130" stroke="#25374B" stroke-width=".25"/>
<!-- DB-J3 -->
<path d="M 560 170 L 620 170" stroke="#25374B" stroke-width=".25"/>
<path d="M 560 170 L 620 205" stroke="#25374B" stroke-width=".25"/>
<path d="M 560 170 L 620 240" stroke="#25374B" stroke-width=".25"/>
<!-- DC-J3 -->
<path d="M 560 280 L 620 280" stroke="#25374B" stroke-width=".25"/>
<path d="M 560 280 L 620 315" stroke="#25374B" stroke-width=".25"/>
<path d="M 560 280 L 620 350" stroke="#25374B" stroke-width=".25"/>
<!-- DE-J3 -->
<path d="M 560 390 L 620 390" stroke="#25374B" stroke-width=".25"/>
<path d="M 560 390 L 620 425" stroke="#25374B" stroke-width=".25"/>
<path d="M 560 390 L 620 460" stroke="#25374B" stroke-width=".25"/>

<circle cx="500" cy="60" r="12.5" fill="#fff" stroke="#fff" stroke-width="2"/>
<text x="500" y="60" style="font-family:Verdana; font-size:15px; fill:#25374B; stroke-width:0.5; text-anchor:middle; dominant-baseline:middle;">D</text>

<circle cx="560" cy="60" r="12.5" fill="#fff" stroke="#fff" stroke-width="2"/>
<text x="560" y="60" style="font-family:Verdana; font-size:15px; fill:#25374B; stroke-width:0.5; text-anchor:middle; dominant-baseline:middle;">A</text>
<circle cx="560" cy="170" r="12.5" fill="#fff" stroke="#fff" stroke-width="2"/>
<text x="560" y="170" style="font-family:Verdana; font-size:15px; fill:#25374B; stroke-width:0.5; text-anchor:middle; dominant-baseline:middle;">B</text>
<circle cx="560" cy="280" r="12.5" fill="#fff" stroke="#fff" stroke-width="2"/>
<text x="560" y="280" style="font-family:Verdana; font-size:15px; fill:#25374B; stroke-width:0.5; text-anchor:middle; dominant-baseline:middle;">C</text>
<circle cx="560" cy="390" r="12.5" fill="#fff" stroke="#fff" stroke-width="2"/>
<text x="560" y="390" style="font-family:Verdana; font-size:15px; fill:#25374B; stroke-width:0.5; text-anchor:middle; dominant-baseline:middle;">E</text>

<!-- DA-J3 -->
<circle cx="620" cy="60" r="12.5" fill="#fff" stroke="#fff" stroke-width="2"/>
<text x="620" y="60" style="font-family:Verdana; font-size:15px; fill:#25374B; stroke-width:0.5; text-anchor:middle; dominant-baseline:middle;">B</text>
<circle cx="620" cy="95" r="12.5" fill="#fff" stroke="#fff" stroke-width="2"/>
<text x="620" y="95" style="font-family:Verdana; font-size:15px; fill:#25374B; stroke-width:0.5; text-anchor:middle; dominant-baseline:middle;">C</text>
<circle cx="620" cy="130" r="12.5" fill="#fff" stroke="#fff" stroke-width="2"/>
<text x="620" y="130" style="font-family:Verdana; font-size:15px; fill:#25374B; stroke-width:0.5; text-anchor:middle; dominant-baseline:middle;">E</text>

<!-- DB-J3 -->
<circle cx="620" cy="170" r="12.5" fill="#fff" stroke="#fff" stroke-width="2"/>
<text x="620" y="170" style="font-family:Verdana; font-size:15px; fill:#25374B; stroke-width:0.5; text-anchor:middle; dominant-baseline:middle;">A</text>
<circle cx="620" cy="205" r="12.5" fill="#fff" stroke="#fff" stroke-width="2"/>
<text x="620" y="205" style="font-family:Verdana; font-size:15px; fill:#25374B; stroke-width:0.5; text-anchor:middle; dominant-baseline:middle;">C</text>
<circle cx="620" cy="240" r="12.5" fill="#fff" stroke="#fff" stroke-width="2"/>
<text x="620" y="240" style="font-family:Verdana; font-size:15px; fill:#25374B; stroke-width:0.5; text-anchor:middle; dominant-baseline:middle;">E</text>

<!-- DC-J3 -->
<circle cx="620" cy="280" r="12.5" fill="#fff" stroke="#fff" stroke-width="2"/>
<text x="620" y="280" style="font-family:Verdana; font-size:15px; fill:#25374B; stroke-width:0.5; text-anchor:middle; dominant-baseline:middle;">A</text>
<circle cx="620" cy="315" r="12.5" fill="#fff" stroke="#fff" stroke-width="2"/>
<text x="620" y="315" style="font-family:Verdana; font-size:15px; fill:#25374B; stroke-width:0.5; text-anchor:middle; dominant-baseline:middle;">B</text>
<circle cx="620" cy="350" r="12.5" fill="#fff" stroke="#fff" stroke-width="2"/>
<text x="620" y="350" style="font-family:Verdana; font-size:15px; fill:#25374B; stroke-width:0.5; text-anchor:middle; dominant-baseline:middle;">E</text>

<!-- DE-J3 -->
<circle cx="620" cy="390" r="12.5" fill="#fff" stroke="#fff" stroke-width="2"/>
<text x="620" y="390" style="font-family:Verdana; font-size:15px; fill:#25374B; stroke-width:0.5; text-anchor:middle; dominant-baseline:middle;">A</text>
<circle cx="620" cy="425" r="12.5" fill="#fff" stroke="#fff" stroke-width="2"/>
<text x="620" y="425" style="font-family:Verdana; font-size:15px; fill:#25374B; stroke-width:0.5; text-anchor:middle; dominant-baseline:middle;">B</text>
<circle cx="620" cy="460" r="12.5" fill="#fff" stroke="#fff" stroke-width="2"/>
<text x="620" y="460" style="font-family:Verdana; font-size:15px; fill:#25374B; stroke-width:0.5; text-anchor:middle; dominant-baseline:middle;">C</text>



<!-- E1 x+160 -->
<text x="660" y="20" style="font-family:Verdana; font-size:12px; color:#000000; overflow:visible; fill:#25374B; stroke-width:0.52; text-anchor:middle;">Juara</text>
<text x="660" y="35" style="font-family:Verdana; font-size:14px; color:#000000; overflow:visible; fill:#25374B; stroke-width:0.52; text-anchor:middle;">1</text>

<text x="720" y="20" style="font-family:Verdana; font-size:12px; color:#000000; overflow:visible; fill:#25374B; stroke-width:0.52; text-anchor:middle;">Juara</text>
<text x="720" y="35" style="font-family:Verdana; font-size:14px; color:#000000; overflow:visible; fill:#25374B; stroke-width:0.52; text-anchor:middle;">2</text>

<text x="780" y="20" style="font-family:Verdana; font-size:12px; color:#000000; overflow:visible; fill:#25374B; stroke-width:0.52; text-anchor:middle;">Juara</text>
<text x="780" y="35" style="font-family:Verdana; font-size:14px; color:#000000; overflow:visible; fill:#25374B; stroke-width:0.52; text-anchor:middle;">3</text>

<!-- E1-J2 -->
<path d="M 660 60 L 720 60" stroke="#25374B" stroke-width=".25"/>
<path d="M 660 60 L 720 170" stroke="#25374B" stroke-width=".25"/>
<path d="M 660 60 L 720 280" stroke="#25374B" stroke-width=".25"/>
<path d="M 660 60 L 720 390" stroke="#25374B" stroke-width=".25"/>
<!-- EA-J3 -->
<path d="M 720 60 L 780 60" stroke="#25374B" stroke-width=".25"/>
<path d="M 720 60 L 780 95" stroke="#25374B" stroke-width=".25"/>
<path d="M 720 60 L 780 130" stroke="#25374B" stroke-width=".25"/>
<!-- EB-J3 -->
<path d="M 720 170 L 780 170" stroke="#25374B" stroke-width=".25"/>
<path d="M 720 170 L 780 205" stroke="#25374B" stroke-width=".25"/>
<path d="M 720 170 L 780 240" stroke="#25374B" stroke-width=".25"/>
<!-- EC-J3 -->
<path d="M 720 280 L 780 280" stroke="#25374B" stroke-width=".25"/>
<path d="M 720 280 L 780 315" stroke="#25374B" stroke-width=".25"/>
<path d="M 720 280 L 780 350" stroke="#25374B" stroke-width=".25"/>
<!-- EED-J3 -->
<path d="M 720 390 L 780 390" stroke="#25374B" stroke-width=".25"/>
<path d="M 720 390 L 780 425" stroke="#25374B" stroke-width=".25"/>
<path d="M 720 390 L 780 460" stroke="#25374B" stroke-width=".25"/>

<circle cx="660" cy="60" r="12.5" fill="#fff" stroke="#fff" stroke-width="2"/>
<text x="660" y="60" style="font-family:Verdana; font-size:15px; fill:#25374B; stroke-width:0.5; text-anchor:middle; dominant-baseline:middle;">E</text>

<circle cx="720" cy="60" r="12.5" fill="#fff" stroke="#fff" stroke-width="2"/>
<text x="720" y="60" style="font-family:Verdana; font-size:15px; fill:#25374B; stroke-width:0.5; text-anchor:middle; dominant-baseline:middle;">A</text>
<circle cx="720" cy="170" r="12.5" fill="#fff" stroke="#fff" stroke-width="2"/>
<text x="720" y="170" style="font-family:Verdana; font-size:15px; fill:#25374B; stroke-width:0.5; text-anchor:middle; dominant-baseline:middle;">B</text>
<circle cx="720" cy="280" r="12.5" fill="#fff" stroke="#fff" stroke-width="2"/>
<text x="720" y="280" style="font-family:Verdana; font-size:15px; fill:#25374B; stroke-width:0.5; text-anchor:middle; dominant-baseline:middle;">C</text>
<circle cx="720" cy="390" r="12.5" fill="#fff" stroke="#fff" stroke-width="2"/>
<text x="720" y="390" style="font-family:Verdana; font-size:15px; fill:#25374B; stroke-width:0.5; text-anchor:middle; dominant-baseline:middle;">D</text>

<!-- EA-J3 -->
<circle cx="780" cy="60" r="12.5" fill="#fff" stroke="#fff" stroke-width="2"/>
<text x="780" y="60" style="font-family:Verdana; font-size:15px; fill:#25374B; stroke-width:0.5; text-anchor:middle; dominant-baseline:middle;">B</text>
<circle cx="780" cy="95" r="12.5" fill="#fff" stroke="#fff" stroke-width="2"/>
<text x="780" y="95" style="font-family:Verdana; font-size:15px; fill:#25374B; stroke-width:0.5; text-anchor:middle; dominant-baseline:middle;">C</text>
<circle cx="780" cy="130" r="12.5" fill="#fff" stroke="#fff" stroke-width="2"/>
<text x="780" y="130" style="font-family:Verdana; font-size:15px; fill:#25374B; stroke-width:0.5; text-anchor:middle; dominant-baseline:middle;">D</text>

<!-- EB-J3 -->
<circle cx="780" cy="170" r="12.5" fill="#fff" stroke="#fff" stroke-width="2"/>
<text x="780" y="170" style="font-family:Verdana; font-size:15px; fill:#25374B; stroke-width:0.5; text-anchor:middle; dominant-baseline:middle;">A</text>
<circle cx="780" cy="205" r="12.5" fill="#fff" stroke="#fff" stroke-width="2"/>
<text x="780" y="205" style="font-family:Verdana; font-size:15px; fill:#25374B; stroke-width:0.5; text-anchor:middle; dominant-baseline:middle;">C</text>
<circle cx="780" cy="240" r="12.5" fill="#fff" stroke="#fff" stroke-width="2"/>
<text x="780" y="240" style="font-family:Verdana; font-size:15px; fill:#25374B; stroke-width:0.5; text-anchor:middle; dominant-baseline:middle;">D</text>

<!-- EC-J3 -->
<circle cx="780" cy="280" r="12.5" fill="#fff" stroke="#fff" stroke-width="2"/>
<text x="780" y="280" style="font-family:Verdana; font-size:15px; fill:#25374B; stroke-width:0.5; text-anchor:middle; dominant-baseline:middle;">A</text>
<circle cx="780" cy="315" r="12.5" fill="#fff" stroke="#fff" stroke-width="2"/>
<text x="780" y="315" style="font-family:Verdana; font-size:15px; fill:#25374B; stroke-width:0.5; text-anchor:middle; dominant-baseline:middle;">B</text>
<circle cx="780" cy="350" r="12.5" fill="#fff" stroke="#fff" stroke-width="2"/>
<text x="780" y="350" style="font-family:Verdana; font-size:15px; fill:#25374B; stroke-width:0.5; text-anchor:middle; dominant-baseline:middle;">D</text>

<!-- ED-J3 -->
<circle cx="780" cy="390" r="12.5" fill="#fff" stroke="#fff" stroke-width="2"/>
<text x="780" y="390" style="font-family:Verdana; font-size:15px; fill:#25374B; stroke-width:0.5; text-anchor:middle; dominant-baseline:middle;">A</text>
<circle cx="780" cy="425" r="12.5" fill="#fff" stroke="#fff" stroke-width="2"/>
<text x="780" y="425" style="font-family:Verdana; font-size:15px; fill:#25374B; stroke-width:0.5; text-anchor:middle; dominant-baseline:middle;">B</text>
<circle cx="780" cy="460" r="12.5" fill="#fff" stroke="#fff" stroke-width="2"/>
<text x="780" y="460" style="font-family:Verdana; font-size:15px; fill:#25374B; stroke-width:0.5; text-anchor:middle; dominant-baseline:middle;">C</text>



<path d="M 0 40 L 800 40" stroke="#25374B" stroke-width=".5" fill="none" />

</svg>
