<svg
   width="250"
   height="114.6"
   xmlns="http://www.w3.org/2000/svg"
   xmlns:svg="http://www.w3.org/2000/svg">
  <!-- kotak -->
  <path d="m 45,43 v 14" style="fill:none;stroke:#009100;stroke-width:0.58;" />
  <path d="M 45,50 L 65,50" style="fill:#009100;stroke:#50b450;stroke-width:1.54" />
  <rect x="65" y="35" width="40" height="30" style="color:#000;fill:none;stroke:#50b450;stroke-width:1.54" />
  <rect x="105" y="35" width="20" height="30" style="color:#000;overflow:visible;fill:none;stroke:#50b450;stroke-width:1.54" />
  <path d="m 125,50 h 80" style="fill:#009100;stroke:#50b450;stroke-width:1.54" />
  <path d="m 205,43 v 14" style="fill:none;stroke:#009100;stroke-width:0.58;" />
  <!-- ||| -->
  <path d="m 25,80 v 10" style="fill:none;stroke:#00f;stroke-width:0.58;" />
    <path d="m 35,85 v 5" style="fill:none;stroke:#00f;stroke-width:0.58;" />
    <path d="m 45,85 v 5" style="fill:none;stroke:#00f;stroke-width:0.58;" />
    <path d="m 55,85 v 5" style="fill:none;stroke:#00f;stroke-width:0.58;" />
    <path d="m 65,85 v 5" style="fill:none;stroke:#00f;stroke-width:0.58;" />
  <path d="m 75,80 v 10" style="fill:none;stroke:#00f;stroke-width:0.58;" />
    <path d="m 85,85 v 5" style="fill:none;stroke:#00f;stroke-width:0.58;" />
    <path d="m 95,85 v 5" style="fill:none;stroke:#00f;stroke-width:0.58;" />
    <path d="m 105,85 v 5" style="fill:none;stroke:#00f;stroke-width:0.58;" />
    <path d="m 115,85 v 5" style="fill:none;stroke:#00f;stroke-width:0.58;" />
  <path d="m 125,80 v 10" style="fill:none;stroke:#00f;stroke-width:0.58;" />
    <path d="m 135,85 v 5" style="fill:none;stroke:#00f;stroke-width:0.58;" />
    <path d="m 145,85 v 5" style="fill:none;stroke:#00f;stroke-width:0.58;" />
    <path d="m 155,85 v 5" style="fill:none;stroke:#00f;stroke-width:0.58;" />
    <path d="m 165,85 v 5" style="fill:none;stroke:#00f;stroke-width:0.58;" />
  <path d="m 175,80 v 10" style="fill:none;stroke:#00f;stroke-width:0.58;" />
    <path d="m 185,85 v 5" style="fill:none;stroke:#00f;stroke-width:0.58;" />
    <path d="m 195,85 v 5" style="fill:none;stroke:#00f;stroke-width:0.58;" />
    <path d="m 205,85 v 5" style="fill:none;stroke:#00f;stroke-width:0.58;" />
    <path d="m 215,85 v 5" style="fill:none;stroke:#00f;stroke-width:0.58;" />
  <path d="m 225,80 v 10" style="fill:none;stroke:#00f;stroke-width:0.58;" />
  
  <text x="25" y="102" style="font-family:Verdana; font-size:10px; color:#000; overflow:visible; fill:#00f; stroke-width:0.52px;" text-anchor="middle" >15</text>
  <text x="75" y="102" style="font-family:Verdana; font-size:10px; color:#000; overflow:visible; fill:#00f; stroke-width:0.52px;" text-anchor="middle" >20</text>
  <text x="125" y="102" style="font-family:Verdana; font-size:10px; color:#000; overflow:visible; fill:#00f; stroke-width:0.52px;" text-anchor="middle" >25</text>
  <text x="175" y="102" style="font-family:Verdana; font-size:10px; color:#000; overflow:visible; fill:#00f; stroke-width:0.52px;" text-anchor="middle" >30</text>
  <text x="225" y="102" style="font-family:Verdana; font-size:10px; color:#000; overflow:visible; fill:#00f; stroke-width:0.52px;" text-anchor="middle" >35</text>

  <text x="125" y="10" style="font-family:Verdana; font-size:12px; color:#000; overflow:visible; fill:#000; stroke-width:0.52px;" text-anchor="middle" >Usia Penerima Beasiswa</text>

  <text x="125" y="115" style="font-family:Verdana; font-size:9px; color:#000; overflow:visible; fill:#00a; stroke-width:0.52px;" text-anchor="middle" >Tahun</text>

  <!-- Garis Bilangan -->
  <path d="M 0,90 H 400.1" style="fill:#00f; fill-opacity:0.75; stroke:#00f; stroke-width:1.125;" />
</svg>
