<svg width="550" height="95" viewBox="15 0 565 95" fill="none" xmlns="http://www.w3.org/2000/svg">
<defs
    id="defs8">
<marker
    style="overflow:visible"
    orient="auto"
    id="id01">
    <path
        d="M 0,0 5,-5 -12.5,0 5,5 Z"
        transform="matrix(-0.8,0,0,-0.8,-10,0)"
        style="stroke:#000000;stroke-width:1pt"
        id="path2" />
</marker>
<marker
    style="overflow:visible"
    orient="auto"
    id="id02">
    <path
        d="M 0,0 5,-5 -12.5,0 5,5 Z"
        transform="matrix(-0.4,0,0,-0.4,-4,0)"
        style="fill:#ff6600;stroke:#ff6600;stroke-width:1pt"
        id="path5" />
</marker>
<marker
    style="overflow:visible"
    orient="auto"
    id="id03">
    <path
        d="M 0,0 5,-5 -12.5,0 5,5 Z"
        transform="matrix(-0.8,0,0,-0.8,-10,0)"
        style="fill:#00f;fill-opacity:1;stroke:#00f;stroke-width:1pt;stroke-opacity:1"
        id="path116809" />
</marker>
</defs>
<path d="M48 69H575" stroke="#00f" stroke-width="1.125" stroke-linecap="round" stroke-linejoin="round" fill="#00f" fill-opacity="0.75" marker-end="url(#id03)"/>
<path d="M48 70L48 80" stroke="#62a0ea" stroke-width=".5" stroke-linecap="round" fill="none" stroke-dasharray="none"/>
<path d="M80 70V75"  stroke="#62a0ea" stroke-width=".5" stroke-linecap="round" fill="none" stroke-dasharray="none"/>
<path d="M112 70V75"  stroke="#62a0ea" stroke-width=".5" stroke-linecap="round" fill="none" stroke-dasharray="none"/>
<path d="M144 70V75"  stroke="#62a0ea" stroke-width=".5" stroke-linecap="round" fill="none" stroke-dasharray="none"/>
<path d="M176 70V75"  stroke="#62a0ea" stroke-width=".5" stroke-linecap="round" fill="none" stroke-dasharray="none"/>
<path d="M208 70V75"  stroke="#62a0ea" stroke-width=".5" stroke-linecap="round" fill="none" stroke-dasharray="none"/>
<path d="M240 70V75"  stroke="#62a0ea" stroke-width=".5" stroke-linecap="round" fill="none" stroke-dasharray="none"/>
<path d="M272 70V75"  stroke="#62a0ea" stroke-width=".5" stroke-linecap="round" fill="none" stroke-dasharray="none"/>
<path d="M304 70V75"  stroke="#62a0ea" stroke-width=".5" stroke-linecap="round" fill="none" stroke-dasharray="none"/>
<path d="M336 70V75"  stroke="#62a0ea" stroke-width=".5" stroke-linecap="round" fill="none" stroke-dasharray="none"/>
<path d="M368 70V75"  stroke="#62a0ea" stroke-width=".5" stroke-linecap="round" fill="none" stroke-dasharray="none"/>
<path d="M400 70V75"  stroke="#62a0ea" stroke-width=".5" stroke-linecap="round" fill="none" stroke-dasharray="none"/>
<path d="M432 70V75"  stroke="#62a0ea" stroke-width=".5" stroke-linecap="round" fill="none" stroke-dasharray="none"/>
<path d="M464 70V75"  stroke="#62a0ea" stroke-width=".5" stroke-linecap="round" fill="none" stroke-dasharray="none"/>
<path d="M496 70V75"  stroke="#62a0ea" stroke-width=".5" stroke-linecap="round" fill="none" stroke-dasharray="none"/>
<path d="M528 69V75"  stroke="#62a0ea" stroke-width=".5" stroke-linecap="round" fill="none" stroke-dasharray="none"/>
<text x="48" y="90"
style="font-family:Verdana; font-size:14.4px; fill:#00f; stroke-width:0.52; text-anchor:middle;">4</text>
<text x="80" y="90"
style="font-family:Verdana; font-size:14.4px; fill:#00f; stroke-width:0.52; text-anchor:middle;">5</text>
<text x="112" y="90"
style="font-family:Verdana; font-size:14.4px; fill:#00f; stroke-width:0.52; text-anchor:middle;">6</text>
<text x="144" y="90"
style="font-family:Verdana; font-size:14.4px; fill:#00f; stroke-width:0.52; text-anchor:middle;">7</text>
<text x="176" y="90"
style="font-family:Verdana; font-size:14.4px; fill:#00f; stroke-width:0.52; text-anchor:middle;">8</text>
<text x="208" y="90"
style="font-family:Verdana; font-size:14.4px; fill:#00f; stroke-width:0.52; text-anchor:middle;">9</text>
<text x="240" y="90"
style="font-family:Verdana; font-size:14.4px; fill:#00f; stroke-width:0.52; text-anchor:middle;">10</text>
<text x="272" y="90"
style="font-family:Verdana; font-size:14.4px; fill:#00f; stroke-width:0.52; text-anchor:middle;">11</text>
<text x="304" y="90"
style="font-family:Verdana; font-size:14.4px; fill:#00f; stroke-width:0.52; text-anchor:middle;">12</text>
<text x="336" y="90"
style="font-family:Verdana; font-size:14.4px; fill:#00f; stroke-width:0.52; text-anchor:middle;">13</text>
<text x="368" y="90"
style="font-family:Verdana; font-size:14.4px; fill:#00f; stroke-width:0.52; text-anchor:middle;">14</text>
<text x="400" y="90"
style="font-family:Verdana; font-size:14.4px; fill:#00f; stroke-width:0.52; text-anchor:middle;">15</text>
<text x="432" y="90"
style="font-family:Verdana; font-size:14.4px; fill:#00f; stroke-width:0.52; text-anchor:middle;">16</text>
<text x="464" y="90"
style="font-family:Verdana; font-size:14.4px; fill:#00f; stroke-width:0.52; text-anchor:middle;">17</text>
<text x="496" y="90"
style="font-family:Verdana; font-size:14.4px; fill:#00f; stroke-width:0.52; text-anchor:middle;">18</text>
<text x="528" y="90"
style="font-family:Verdana; font-size:14.4px; fill:#00f; stroke-width:0.52; text-anchor:middle;">19</text>
<circle cx="48" cy="50" r="7" fill="#f60" stroke="#f60" stroke-linecap="round" />
<circle cx="80" cy="50" r="7" fill="#f60" stroke="#f60" stroke-linecap="round" />
<circle cx="80" cy="30" r="7" fill="#f60" stroke="#f60" stroke-linecap="round" />
<circle cx="208" cy="50" r="7" fill="#f60" stroke="#f60" stroke-linecap="round" />
<circle cx="304" cy="50" r="7" fill="#f60" stroke="#f60" stroke-linecap="round" />
<circle cx="240" cy="50" r="7" fill="#f60" stroke="#f60" stroke-linecap="round" />
<circle cx="240" cy="30" r="7" fill="#f60" stroke="#f60" stroke-linecap="round" />
<circle cx="400" cy="50" r="7" fill="#f60" stroke="#f60" stroke-linecap="round" />
<circle cx="464" cy="50" r="7" fill="#f60" stroke="#f60" stroke-linecap="round" />
<circle cx="400" cy="10" r="7" fill="#f60" stroke="#f60" stroke-linecap="round" />
<circle cx="496" cy="50" r="7" fill="#f60" stroke="#f60" stroke-linecap="round" />
<circle cx="528" cy="50" r="7" fill="#f60" stroke="#f60" stroke-linecap="round" />
<circle cx="432" cy="50" r="7" fill="#f60" stroke="#f60" stroke-linecap="round" />
<circle cx="400" cy="30" r="7" fill="#f60" stroke="#f60" stroke-linecap="round" />
<circle cx="432" cy="30" r="7" fill="#f60" stroke="#f60" stroke-linecap="round" />
</svg>
