<svg width="575" height="96" viewBox="0 0 575 96" fill="none" xmlns="http://www.w3.org/2000/svg">
<defs
    id="defs8">
<marker
    style="overflow:visible"
    orient="auto"
    id="id01">
    <path
        d="M 0,0 5,-5 -12.5,0 5,5 Z"
        transform="matrix(-0.8,0,0,-0.8,-10,0)"
        style="stroke:#000000;stroke-width:1pt"
        id="path2" />
</marker>
<marker
    style="overflow:visible"
    orient="auto"
    id="id02">
    <path
        d="M 0,0 5,-5 -12.5,0 5,5 Z"
        transform="matrix(-0.4,0,0,-0.4,-4,0)"
        style="fill:#ff6600;stroke:#ff6600;stroke-width:1pt"
        id="path5" />
</marker>
<marker
    style="overflow:visible"
    orient="auto"
    id="id03">
    <path
        d="M 0,0 5,-5 -12.5,0 5,5 Z"
        transform="matrix(-0.6,0,0,-0.6,-7,0)"
        style="fill:#00f;stroke:#00f;stroke-width:1pt"
        id="path5" />
</marker>
<marker
    style="overflow:visible"
    orient="auto"
    id="id04">
    <path
        d="M 0,0 5,-5 -12.5,0 5,5 Z"
        transform="matrix(-0.8,0,0,-0.8,-10,0)"
        style="fill:#0000ff;fill-opacity:1;stroke:#0000ff;stroke-width:1pt;stroke-opacity:1"
        id="path116809" />
</marker>
</defs>
<path d="M20 70 L 570 70" stroke="#00f" stroke-width="1.45" stroke-linecap="round" stroke-linejoin="round" marker-end="url(#id03)"/>
<path d="M20 70V78" stroke="#62a0ea" stroke-width=".5" stroke-linecap="round" stroke-linejoin="round"/>
<path d="M50 70V78" stroke="#62a0ea" stroke-width=".5" stroke-linecap="round" stroke-linejoin="round"/>
<path d="M80 70V78" stroke="#62a0ea" stroke-width=".5" stroke-linecap="round" stroke-linejoin="round"/>
<path d="M110 70V78" stroke="#62a0ea" stroke-width=".5" stroke-linecap="round" stroke-linejoin="round"/>
<path d="M140 70V78" stroke="#62a0ea" stroke-width=".5" stroke-linecap="round" stroke-linejoin="round"/>
<path d="M170 70V78" stroke="#62a0ea" stroke-width=".5" stroke-linecap="round" stroke-linejoin="round"/>
<path d="M200 70V78" stroke="#62a0ea" stroke-width=".5" stroke-linecap="round" stroke-linejoin="round"/>
<path d="M230 70V78" stroke="#62a0ea" stroke-width=".5" stroke-linecap="round" stroke-linejoin="round"/>
<path d="M260 70V78" stroke="#62a0ea" stroke-width=".5" stroke-linecap="round" stroke-linejoin="round"/>
<path d="M290 70V78" stroke="#62a0ea" stroke-width=".5" stroke-linecap="round" stroke-linejoin="round"/>
<path d="M320 70V78" stroke="#62a0ea" stroke-width=".5" stroke-linecap="round" stroke-linejoin="round"/>
<path d="M350 70V78" stroke="#62a0ea" stroke-width=".5" stroke-linecap="round" stroke-linejoin="round"/>
<path d="M380 70V78" stroke="#62a0ea" stroke-width=".5" stroke-linecap="round" stroke-linejoin="round"/>
<path d="M410 70V78" stroke="#62a0ea" stroke-width=".5" stroke-linecap="round" stroke-linejoin="round"/>
<path d="M440 70V78" stroke="#62a0ea" stroke-width=".5" stroke-linecap="round" stroke-linejoin="round"/>
<path d="M470 70V78" stroke="#62a0ea" stroke-width=".5" stroke-linecap="round" stroke-linejoin="round"/>
<path d="M500 70V78" stroke="#62a0ea" stroke-width=".5" stroke-linecap="round" stroke-linejoin="round"/>
<path d="M530 70V78" stroke="#62a0ea" stroke-width=".5" stroke-linecap="round" stroke-linejoin="round"/>
<text x="20" y="95"
style="font-family:Verdana; font-size:14px; fill:#00f; stroke-width:0.52; text-anchor:middle;">1</text>
<text x="50" y="95"
style="font-family:Verdana; font-size:14px; fill:#00f; stroke-width:0.52; text-anchor:middle;">2</text>
<text x="80" y="95"
style="font-family:Verdana; font-size:14px; fill:#00f; stroke-width:0.52; text-anchor:middle;">3</text>
<text x="110" y="95"
style="font-family:Verdana; font-size:14px; fill:#00f; stroke-width:0.52; text-anchor:middle;">4</text>
<text x="140" y="95"
style="font-family:Verdana; font-size:14px; fill:#00f; stroke-width:0.52; text-anchor:middle;">5</text>
<text x="170" y="95"
style="font-family:Verdana; font-size:14px; fill:#00f; stroke-width:0.52; text-anchor:middle;">6</text>
<text x="200" y="95"
style="font-family:Verdana; font-size:14px; fill:#00f; stroke-width:0.52; text-anchor:middle;">7</text>
<text x="230" y="95"
style="font-family:Verdana; font-size:14px; fill:#00f; stroke-width:0.52; text-anchor:middle;">8</text>
<text x="260" y="95"
style="font-family:Verdana; font-size:14px; fill:#00f; stroke-width:0.52; text-anchor:middle;">9</text>
<text x="290" y="95"
style="font-family:Verdana; font-size:14px; fill:#00f; stroke-width:0.52; text-anchor:middle;">10</text>
<text x="320" y="95"
style="font-family:Verdana; font-size:14px; fill:#00f; stroke-width:0.52; text-anchor:middle;">11</text>
<text x="350" y="95"
style="font-family:Verdana; font-size:14px; fill:#00f; stroke-width:0.52; text-anchor:middle;">12</text>
<text x="380" y="95"
style="font-family:Verdana; font-size:14px; fill:#00f; stroke-width:0.52; text-anchor:middle;">13</text>
<text x="410" y="95"
style="font-family:Verdana; font-size:14px; fill:#00f; stroke-width:0.52; text-anchor:middle;">14</text>
<text x="440" y="95"
style="font-family:Verdana; font-size:14px; fill:#00f; stroke-width:0.52; text-anchor:middle;">15</text>
<text x="470" y="95"
style="font-family:Verdana; font-size:14px; fill:#00f; stroke-width:0.52; text-anchor:middle;">16</text>
<text x="500" y="95"
style="font-family:Verdana; font-size:14px; fill:#00f; stroke-width:0.52; text-anchor:middle;">17</text>
<text x="530" y="95"
style="font-family:Verdana; font-size:14px; fill:#00f; stroke-width:0.52; text-anchor:middle;">18</text>
<circle cx="20" cy="50" r="7" fill="#f60"/>
<circle cx="50" cy="50" r="7" fill="#f60"/>
<circle cx="80" cy="50" r="7" fill="#f60"/>
<circle cx="140" cy="50" r="7" fill="#f60"/>
<circle cx="230" cy="50" r="7" fill="#f60"/>
<circle cx="260" cy="50" r="7" fill="#f60"/>
<circle cx="260" cy="30" r="7" fill="#f60"/>
<circle cx="290" cy="10" r="7" fill="#f60"/>
<circle cx="290" cy="30" r="7" fill="#f60"/>
<circle cx="290" cy="50" r="7" fill="#f60"/>
<circle cx="350" cy="50" r="7" fill="#f60"/>
<circle cx="470" cy="50" r="7" fill="#f60"/>
<circle cx="500" cy="50" r="7" fill="#f60"/>
<circle cx="530" cy="50" r="7" fill="#f60"/>
<circle cx="530" cy="30" r="7" fill="#f60"/>
</svg>
