<svg width="325" height="60" viewBox="0 0 325 60" fill="none" xmlns="http://www.w3.org/2000/svg">
<rect x="1" y="30" width="29" height="28" rx="5px" fill="#f1f2f3" stroke="#000" stroke-width=".5"/>
  <text x="15" y="48" style="font-size:14px;font-family:Verdana;fill:#000;stroke-width:0.6;text-anchor:middle;">1</text>
<rect x="41" y="30" width="29" height="28" rx="5px" fill="#f1f2f3" stroke="#000" stroke-width=".5"/>
  <text x="55" y="48" style="font-size:14px;font-family:Verdana;fill:#000;stroke-width:0.6;text-anchor:middle;">3</text>
<rect x="81" y="30" width="29" height="28" rx="5px" fill="#f1f2f3" stroke="#000" stroke-width=".5"/>
  <text x="95" y="48" style="font-size:14px;font-family:Verdana;fill:#000;stroke-width:0.6;text-anchor:middle;">4</text>
<rect x="121" y="30" width="29" height="28" rx="5px" fill="#f1f2f3" stroke="#000" stroke-width=".5"/>
  <text x="135" y="48" style="font-size:14px;font-family:Verdana;fill:#000;stroke-width:0.6;text-anchor:middle;">7</text>
<path
  d="M 160,10 V 60"
  style="fill:none;stroke:#f00;stroke-width:1.21;stroke-dasharray:none" />
<!-- <circle cx = "160" cy = "15" r = "15" fill="#f60"> </circle> -->
<ellipse cx="160" cy="15" rx="25" ry="15" fill="#f60" />
<!-- <rect x="130" y="1" width="60" height="25" rx="5px" fill="#f60" stroke="#000" stroke-width="2"/> -->
  <text x="160" y="19" style="font-size:12px;font-family:Verdana;fill:#fff;stroke-width:0.6;text-anchor:middle;">Q₂=Me</text>
<rect x="171" y="30" width="29" height="28" rx="5px" fill="#f1f2f3" stroke="#000" stroke-width=".5"/>
  <text x="185" y="48" style="font-size:14px;font-family:Verdana;fill:#000;stroke-width:0.6;text-anchor:middle;">11</text>
<rect x="211" y="30" width="29" height="28" rx="5px" fill="#f1f2f3" stroke="#000" stroke-width=".5"/>
  <text x="225" y="48" style="font-size:14px;font-family:Verdana;fill:#000;stroke-width:0.6;text-anchor:middle;">12</text>
<rect x="251" y="30" width="29" height="28" rx="5px" fill="#f1f2f3" stroke="#000" stroke-width=".5"/>
  <text x="265" y="48" style="font-size:14px;font-family:Verdana;fill:#000;stroke-width:0.6;text-anchor:middle;">14</text>
<rect x="291" y="30" width="29" height="28" rx="5px" fill="#f1f2f3" stroke="#000" stroke-width=".5"/>
  <text x="305" y="48" style="font-size:14px;font-family:Verdana;fill:#000;stroke-width:0.6;text-anchor:middle;">19</text>
</svg>
