<svg width="275" height="65" viewBox="0 -5 275 65" fill="none" xmlns="http://www.w3.org/2000/svg">

<rect x="1" y="30" width="29" height="28" rx="5px" fill="#f1f2f3" stroke="#000" stroke-width=".5"/>
<text x="15" y="48" style="font-size:14px;font-family:Verdana;fill:#000;stroke-width:0.6;text-anchor:middle;">5</text>

<rect x="41" y="30" width="29" height="28" rx="5px" fill="#f1f2f3" stroke="#000" stroke-width=".5"/>
<text x="55" y="50" style="font-size:14px;font-family:Verdana;fill:#000;stroke-width:0.6;text-anchor:middle;">6</text>

<rect x="81" y="30" width="29" height="28" rx="5px" fill="#f1f2f3" stroke="#000" stroke-width=".5"/>
<text x="95" y="48" style="font-size:14px;font-family:Verdana;fill:#000;stroke-width:0.6;text-anchor:middle;">7</text>

<rect x="121" y="30" width="29" height="28" rx="5px" fill="#f1f2f3" stroke="#000" stroke-width=".5"/>
<path
d="M 135,10 V 60"
style="fill:none;stroke:#f00;stroke-width:1.21;stroke-dasharray:none" />
<text x="135" y="50" style="font-weight:bold; font-size:16px;font-family:Verdana;fill:#000;stroke-width:0.6;text-anchor:middle;">7</text>
<ellipse cx="135" cy="10" rx="30" ry="15" fill="#f60" />
<text x="135" y="15" style="font-size:14px;font-family:Verdana;fill:#fff;stroke-width:0.6;text-anchor:middle;">Q₂=Me</text>

<rect x="161" y="30" width="29" height="28" rx="5px" fill="#f1f2f3" stroke="#000" stroke-width=".5"/>
<text x="175" y="48" style="font-size:14px;font-family:Verdana;fill:#000;stroke-width:0.6;text-anchor:middle;">8</text>

<rect x="201" y="30" width="29" height="28" rx="5px" fill="#f1f2f3" stroke="#000" stroke-width=".5"/>
<text x="215" y="50" style="font-size:14px;font-family:Verdana;fill:#000;stroke-width:0.6;text-anchor:middle;">8</text>

<rect x="241" y="30" width="29" height="28" rx="5px" fill="#f1f2f3" stroke="#000" stroke-width=".5"/>
<text x="255" y="48" style="font-size:14px;font-family:Verdana;fill:#000;stroke-width:0.6;text-anchor:middle;">9</text>

</svg>