<svg width="335" height="60" viewBox="0 0 335 60" fill="none" xmlns="http://www.w3.org/2000/svg">
<rect x="1" y="30" width="29" height="28" rx="5px" fill="#f1f2f3" stroke="#000" stroke-width=".5"/>
  <text x="15" y="48" style="font-size:14px;font-family:Verdana;fill:#000;stroke-width:0.6;text-anchor:middle;">1</text>
<rect x="41" y="30" width="29" height="28" rx="5px" fill="#f1f2f3" stroke="#000" stroke-width=".5"/>
  <text x="55" y="48" style="font-size:14px;font-family:Verdana;fill:#000;stroke-width:0.6;text-anchor:middle;">3</text>
<path
  d="M 80,10 V 60"
  style="fill:none;stroke:#f00;stroke-width:1.21;stroke-dasharray:none" />
<circle cx = "80" cy = "15" r = "15" fill="#f60" />
<!-- <rect x="60" y="1" width="40" height="25" rx="5px" fill="#f60" stroke="#000" stroke-width=".5"/> -->
  <text x="80" y="19" style="font-size:12px;font-family:Verdana;fill:#fff;stroke-width:0.6;text-anchor:middle;">Q₁</text>
<rect x="91" y="30" width="29" height="28" rx="5px" fill="#f1f2f3" stroke="#000" stroke-width=".5"/>
  <text x="105" y="48" style="font-size:14px;font-family:Verdana;fill:#000;stroke-width:0.6;text-anchor:middle;">4</text>
<rect x="131" y="30" width="29" height="28" rx="5px" fill="#f1f2f3" stroke="#000" stroke-width=".5"/>
  <text x="145" y="48" style="font-size:14px;font-family:Verdana;fill:#000;stroke-width:0.6;text-anchor:middle;">7</text>
<path
  d="M 170,10 V 60"
  style="fill:none;stroke:#f00;stroke-width:1.21;stroke-dasharray:none" />
<!-- <circle cx="140" cy="15" r="50" ry="15" fill="#f60"> </circle> -->
<ellipse cx="170" cy="15" rx="25" ry="15" fill="#f60" />
<!-- <rect x="140" y="1" width="60" height="25" rx="5px" fill="#f60" stroke="#000" stroke-width=".5"/> -->
  <text x="170" y="19" style="font-size:12px;font-family:Verdana;fill:#fff;stroke-width:0.6;text-anchor:middle;">Q₂=Me</text>
<rect x="181" y="30" width="29" height="28" rx="5px" fill="#f1f2f3" stroke="#000" stroke-width=".5"/>
  <text x="195" y="48" style="font-size:14px;font-family:Verdana;fill:#000;stroke-width:0.6;text-anchor:middle;">11</text>
<rect x="221" y="30" width="29" height="28" rx="5px" fill="#f1f2f3" stroke="#000" stroke-width=".5"/>
  <text x="235" y="48" style="font-size:14px;font-family:Verdana;fill:#000;stroke-width:0.6;text-anchor:middle;">12</text>
<rect x="261" y="30" width="29" height="28" rx="2" fill="#f1f2f3" stroke="#000" stroke-width=".5"/>
  <text x="275" y="48" style="font-size:14px;font-family:Verdana;fill:#000;stroke-width:0.6;text-anchor:middle;">14</text>
<rect x="301" y="30" width="29" height="28" rx="2" fill="#f1f2f3" stroke="#000" stroke-width=".5"/>
  <text x="315" y="48" style="font-size:14px;font-family:Verdana;fill:#000;stroke-width:0.6;text-anchor:middle;">19</text>
</svg>
