<svg xmlns="http://www.w3.org/2000/svg" width="156.25" height="156.25" viewBox="0 0 156.25 156.25"><defs><clipPath id="a"><path d="M6.25 0h150v150h-150z"/>
</clipPath></defs><path fill="none" stroke="#729fcf" d="M6.25 150V0M21.25 150V0M36.25 150V0M51.25 150V0M66.25 150V0M81.25 150V0M96.25 150V0M111.25 150V0M126.25 150V0M141.25 150V0M156.25 150V0M6.25 150h150M6.25 141.176h150M6.25 132.353h150M6.25 123.529h150M6.25 114.706h150M6.25 105.882h150M6.25 97.059h150M6.25 88.235h150M6.25 79.412h150M6.25 70.588h150M6.25 61.765h150M6.25 52.941h150M6.25 44.118h150M6.25 35.294h150M6.25 26.47h150M6.25 17.647h150M6.25 8.824h150M6.25 0h150" stroke-width="2" opacity=".1"/><path fill="none" stroke="#729fcf" d="M6.25 150" stroke-width="2"/><path fill="none" stroke="#729fcf" d="M150.7 155.6c.35-2.1 4.2-5.25 5.25-5.6-1.05-.35-4.9-3.5-5.25-5.6" stroke-width="2" stroke-linejoin="round" stroke-linecap="round"/><path fill="none" stroke="#729fcf" d="M6.25 150H155.2M6.25 150" stroke-width="2"/><path fill="none" stroke="#729fcf" d="M12.6 6.3C10.5 5.95 7.35 2.1 7 1.05 6.65 2.1 3.5 5.95 1.4 6.3" stroke-width="2" stroke-linejoin="round" stroke-linecap="round"/><path fill="none" stroke="#729fcf" d="M6.25 150V1.05" stroke-width="2"/><path fill="none" stroke="#729fcf" d="M21.25 155v-10M36.25 155v-10M51.25 155v-10M66.25 155v-10M81.25 155v-10M96.25 155v-10M111.25 155v-10M126.25 155v-10M141.25 155v-10M156.25 155v-10M1.25 141.176h10M1.25 132.353h10M1.25 123.529h10M1.25 114.706h10M1.25 105.882h10M1.25 97.059h10M1.25 88.235h10M1.25 79.412h10M1.25 70.588h10M1.25 61.765h10M1.25 52.941h10M1.25 44.118h10M1.25 35.294h10M1.25 26.47h10M1.25 17.647h10M1.25 8.824h10"/><ellipse cx="21.25" cy="17.647" rx="2" ry="2" stroke="#f00" fill="#f00" stroke-width="2" clip-path="url(#a)"/><ellipse cx="36.25" cy="44.118" rx="2" ry="2" stroke="#f00" fill="#f00" stroke-width="2" clip-path="url(#a)"/><ellipse cx="51.25" cy="52.941" rx="2" ry="2" stroke="#f00" fill="#f00" stroke-width="2" clip-path="url(#a)"/><ellipse cx="66.25" cy="88.235" rx="2" ry="2" stroke="#f00" fill="#f00" stroke-width="2" clip-path="url(#a)"/><ellipse cx="81.25" cy="88.235" rx="2" ry="2" stroke="#f00" fill="#f00" stroke-width="2" clip-path="url(#a)"/><ellipse cx="96.25" cy="97.059" rx="2" ry="2" stroke="#f00" fill="#f00" stroke-width="2" clip-path="url(#a)"/><ellipse cx="111.25" cy="97.059" rx="2" ry="2" stroke="#f00" fill="#f00" stroke-width="2" clip-path="url(#a)"/><ellipse cx="126.25" cy="97.059" rx="2" ry="2" stroke="#f00" fill="#f00" stroke-width="2" clip-path="url(#a)"/><ellipse cx="141.25" cy="123.529" rx="2" ry="2" stroke="#f00" fill="#f00" stroke-width="2" clip-path="url(#a)"/></svg>
