<svg xmlns="http://www.w3.org/2000/svg" width="156.25" height="156.25" viewBox="0 0 156.25 156.25"><defs><clipPath id="a"><path d="M6.25 0h150v150h-150z"/></clipPath></defs><path fill="none" stroke="#729fcf" d="M9.583 150V0M26.25 150V0M42.917 150V0M59.583 150V0M76.25 150V0M92.917 150V0M109.583 150V0M126.25 150V0M142.917 150V0M6.25 150h150M6.25 112.5h150M6.25 75h150M6.25 37.5h150M6.25 0h150" stroke-width="2" opacity=".1"/><path fill="none" stroke="#729fcf" d="M13.3 144.4c-.35 2.1-4.2 5.25-5.25 5.6 1.05.35 4.9 3.5 5.25 5.6" stroke-width="2" stroke-linejoin="round" stroke-linecap="round"/><path fill="none" stroke="#729fcf" d="M9.583 150H7.3" stroke-width="2"/><path fill="none" stroke="#729fcf" d="M150.7 155.6c.35-2.1 4.2-5.25 5.25-5.6-1.05-.35-4.9-3.5-5.25-5.6" stroke-width="2" stroke-linejoin="round" stroke-linecap="round"/><path fill="none" stroke="#729fcf" d="M9.583 150H155.2M9.583 150" stroke-width="2"/><path fill="none" stroke="#729fcf" d="M15.933 6.3c-2.1-.35-5.25-4.2-5.6-5.25-.35 1.05-3.5 4.9-5.6 5.25" stroke-width="2" stroke-linejoin="round" stroke-linecap="round"/><path fill="none" stroke="#729fcf" d="M9.583 150V1.05" stroke-width="2"/><path fill="none" stroke="#729fcf" d="M42.917 155v-10M76.25 155v-10M109.583 155v-10M142.917 155v-10M4.583 112.5h10M4.583 75h10M4.583 37.5h10"/><ellipse cx="9.583" cy="72" rx="2" ry="2" stroke="#f00" fill="#f00" stroke-width="2" clip-path="url(#a)"/><ellipse cx="12.917" cy="80.25" rx="2" ry="2" stroke="#f00" fill="#f00" stroke-width="2" clip-path="url(#a)"/><ellipse cx="16.25" cy="73.5" rx="2" ry="2" stroke="#f00" fill="#f00" stroke-width="2" clip-path="url(#a)"/><ellipse cx="19.583" cy="63" rx="2" ry="2" stroke="#f00" fill="#f00" stroke-width="2" clip-path="url(#a)"/><ellipse cx="22.917" cy="80.25" rx="2" ry="2" stroke="#f00" fill="#f00" stroke-width="2" clip-path="url(#a)"/><ellipse cx="26.25" cy="75.75" rx="2" ry="2" stroke="#f00" fill="#f00" stroke-width="2" clip-path="url(#a)"/><ellipse cx="29.583" cy="84" rx="2" ry="2" stroke="#f00" fill="#f00" stroke-width="2" clip-path="url(#a)"/><ellipse cx="32.917" cy="63.75" rx="2" ry="2" stroke="#f00" fill="#f00" stroke-width="2" clip-path="url(#a)"/><ellipse cx="36.25" cy="71.25" rx="2" ry="2" stroke="#f00" fill="#f00" stroke-width="2" clip-path="url(#a)"/><ellipse cx="39.583" cy="66" rx="2" ry="2" stroke="#f00" fill="#f00" stroke-width="2" clip-path="url(#a)"/><ellipse cx="42.917" cy="57.75" rx="2" ry="2" stroke="#f00" fill="#f00" stroke-width="2" clip-path="url(#a)"/><ellipse cx="46.25" cy="54" rx="2" ry="2" stroke="#f00" fill="#f00" stroke-width="2" clip-path="url(#a)"/><ellipse cx="49.583" cy="68.25" rx="2" ry="2" stroke="#f00" fill="#f00" stroke-width="2" clip-path="url(#a)"/><ellipse cx="52.917" cy="54.75" rx="2" ry="2" stroke="#f00" fill="#f00" stroke-width="2" clip-path="url(#a)"/><ellipse cx="56.25" cy="66" rx="2" ry="2" stroke="#f00" fill="#f00" stroke-width="2" clip-path="url(#a)"/><ellipse cx="59.583" cy="69" rx="2" ry="2" stroke="#f00" fill="#f00" stroke-width="2" clip-path="url(#a)"/><ellipse cx="62.917" cy="63.75" rx="2" ry="2" stroke="#f00" fill="#f00" stroke-width="2" clip-path="url(#a)"/><ellipse cx="66.25" cy="53.25" rx="2" ry="2" stroke="#f00" fill="#f00" stroke-width="2" clip-path="url(#a)"/><ellipse cx="69.583" cy="48" rx="2" ry="2" stroke="#f00" fill="#f00" stroke-width="2" clip-path="url(#a)"/><ellipse cx="72.917" cy="57" rx="2" ry="2" stroke="#f00" fill="#f00" stroke-width="2" clip-path="url(#a)"/><ellipse cx="76.25" cy="45.75" rx="2" ry="2" stroke="#f00" fill="#f00" stroke-width="2" clip-path="url(#a)"/><ellipse cx="79.583" cy="46.5" rx="2" ry="2" stroke="#f00" fill="#f00" stroke-width="2" clip-path="url(#a)"/><ellipse cx="82.917" cy="60.75" rx="2" ry="2" stroke="#f00" fill="#f00" stroke-width="2" clip-path="url(#a)"/><ellipse cx="86.25" cy="59.25" rx="2" ry="2" stroke="#f00" fill="#f00" stroke-width="2" clip-path="url(#a)"/><ellipse cx="89.583" cy="53.25" rx="2" ry="2" stroke="#f00" fill="#f00" stroke-width="2" clip-path="url(#a)"/><ellipse cx="92.917" cy="42.75" rx="2" ry="2" stroke="#f00" fill="#f00" stroke-width="2" clip-path="url(#a)"/><ellipse cx="96.25" cy="50.25" rx="2" ry="2" stroke="#f00" fill="#f00" stroke-width="2" clip-path="url(#a)"/><ellipse cx="99.583" cy="40.5" rx="2" ry="2" stroke="#f00" fill="#f00" stroke-width="2" clip-path="url(#a)"/><ellipse cx="102.917" cy="28.5" rx="2" ry="2" stroke="#f00" fill="#f00" stroke-width="2" clip-path="url(#a)"/><ellipse cx="106.25" cy="44.25" rx="2" ry="2" stroke="#f00" fill="#f00" stroke-width="2" clip-path="url(#a)"/><ellipse cx="109.583" cy="44.25" rx="2" ry="2" stroke="#f00" fill="#f00" stroke-width="2" clip-path="url(#a)"/><ellipse cx="112.917" cy="35.25" rx="2" ry="2" stroke="#f00" fill="#f00" stroke-width="2" clip-path="url(#a)"/><ellipse cx="116.25" cy="28.5" rx="2" ry="2" stroke="#f00" fill="#f00" stroke-width="2" clip-path="url(#a)"/><ellipse cx="119.583" cy="30" rx="2" ry="2" stroke="#f00" fill="#f00" stroke-width="2" clip-path="url(#a)"/><ellipse cx="122.917" cy="36" rx="2" ry="2" stroke="#f00" fill="#f00" stroke-width="2" clip-path="url(#a)"/><ellipse cx="126.25" cy="25.5" rx="2" ry="2" stroke="#f00" fill="#f00" stroke-width="2" clip-path="url(#a)"/><ellipse cx="129.583" cy="30.75" rx="2" ry="2" stroke="#f00" fill="#f00" stroke-width="2" clip-path="url(#a)"/><ellipse cx="132.917" cy="28.5" rx="2" ry="2" stroke="#f00" fill="#f00" stroke-width="2" clip-path="url(#a)"/><ellipse cx="136.25" cy="38.25" rx="2" ry="2" stroke="#f00" fill="#f00" stroke-width="2" clip-path="url(#a)"/><ellipse cx="139.583" cy="30" rx="2" ry="2" stroke="#f00" fill="#f00" stroke-width="2" clip-path="url(#a)"/><ellipse cx="142.917" cy="24.75" rx="2" ry="2" stroke="#f00" fill="#f00" stroke-width="2" clip-path="url(#a)"/><ellipse cx="146.25" cy="33.75" rx="2" ry="2" stroke="#f00" fill="#f00" stroke-width="2" clip-path="url(#a)"/><ellipse cx="149.583" cy="32.25" rx="2" ry="2" stroke="#f00" fill="#f00" stroke-width="2" clip-path="url(#a)"/><path fill="#28ae7b" stroke="#28ae7b" d="M6.25-2295l.5-4.5.5-4.5.5-4.5.5-4.5.5-4.5.5-4.5.5-4.5.5-4.5.5-4.5.5-4.5.5-4.5.5-4.5.5-4.5.5-4.5.5-4.5.5-4.5.5-4.5.5-4.5.5-4.5.5-4.5.5-4.5.5-4.5.5-4.5.5-4.5.5-4.5.5-4.5.5-4.5.5-4.5.5-4.5.5-4.5.5-4.5.5-4.5.5-4.5.5-4.5.5-4.5.5-4.5.5-4.5.5-4.5.5-4.5.5-4.5.5-4.5.5-4.5.5-4.5.5-4.5.5-4.5.5-4.5.5-4.5.5-4.5.5-4.5.5-4.5.5-4.5.5-4.5.5-4.5.5-4.5.5-4.5.5-4.5.5-4.5.5-4.5.5-4.5.5-4.5.5-4.5.5-4.5.5-4.5.5-4.5.5-4.5.5-4.5.5-4.5.5-4.5.5-4.5.5-4.5.5-4.5.5-4.5.5-4.5.5-4.5.5-4.5.5-4.5.5-4.5.5-4.5.5-4.5.5-4.5.5-4.5.5-4.5.5-4.5.5-4.5.5-4.5.5-4.5.5-4.5.5-4.5.5-4.5.5-4.5.5-4.5.5-4.5.5-4.5.5-4.5.5-4.5.5-4.5.5-4.5.5-4.5.5-4.5.5-4.5.5-4.5.5-4.5.5-4.5.5-4.5.5-4.5.5-4.5.5-4.5.5-4.5.5-4.5.5-4.5.5-4.5.5-4.5.5-4.5.5-4.5.5-4.5.5-4.5.5-4.5.5-4.5.5-4.5.5-4.5.5-4.5.5-4.5.5-4.5.5-4.5.5-4.5.5-4.5.5-4.5.5-4.5.5-4.5.5-4.5.5-4.5.5-4.5.5-4.5.5-4.5.5-4.5.5-4.5.5-4.5.5-4.5.5-4.5.5-4.5.5-4.5.5-4.5.5-4.5.5-4.5.5-4.5.5-4.5.5-4.5.5-4.5.5-4.5.5-4.5.5-4.5.5-4.5.5-4.5.5-4.5.5-4.5.5-4.5.5-4.5.5-4.5.5-4.5.5-4.5.5-4.5.5-4.5.5-4.5.5-4.5.5-4.5.5-4.5.5-4.5.5-4.5.5-4.5.5-4.5.5-4.5.5-4.5.5-4.5.5-4.5.5-4.5.5-4.5.5-4.5.5-4.5.5-4.5.5-4.5.5-4.5.5-4.5.5-4.5.5-4.5.5-4.5.5-4.5.5-4.5.5-4.5.5-4.5.5-4.5.5-4.5.5-4.5.5-4.5.5-4.5.5-4.5.5-4.5.5-4.5.5-4.5.5-4.5.5-4.5.5-4.5.5-4.5.5-4.5.5-4.5.5-4.5.5-4.5.5-4.5.5-4.5.5-4.5.5-4.5.5-4.5.5-4.5.5-4.5.5-4.5.5-4.5.5-4.5.5-4.5.5-4.5.5-4.5.5-4.5.5-4.5.5-4.5.5-4.5.5-4.5.5-4.5.5-4.5.5-4.5.5-4.5.5-4.5.5-4.5.5-4.5.5-4.5.5-4.5.5-4.5.5-4.5.5-4.5.5-4.5.5-4.5.5-4.5.5-4.5.5-4.5.5-4.5.5-4.5.5-4.5.5-4.5.5-4.5.5-4.5.5-4.5.5-4.5.5-4.5.5-4.5.5-4.5.5-4.5.5-4.5.5-4.5.5-4.5.5-4.5.5-4.5.5-4.5.5-4.5.5-4.5.5-4.5.5-4.5.5-4.5.5-4.5.5-4.5.5-4.5.5-4.5.5-4.5.5-4.5.5-4.5.5-4.5.5-4.5.5-4.5.5-4.5.5-4.5.5-4.5.5-4.5.5-4.5.5-4.5.5-4.5.5-4.5.5-4.5.5-4.5.5-4.5.5-4.5.5-4.5.5-4.5.5-4.5.5-4.5.5-4.5.5-4.5.5-4.5.5-4.5.5-4.5.5-4.5.5-4.5.5-4.5.5-4.5.5-4.5" stroke-width="2" clip-path="url(#a)"/></svg>
