<svg xmlns="http://www.w3.org/2000/svg" width="156.25" height="156.25" viewBox="0 0 156.24999999999997 156.24999999999997"><defs><clipPath id="a"><path d="M6.25 0h150v150h-150z"/></clipPath></defs><path fill="none" stroke="#729fcf" d="M6.25 150V0M21.79 150V0M37.332 150V0M52.873 150V0M68.413 150V0M83.954 150V0M99.495 150V0M115.036 150V0M130.577 150V0M146.117 150V0M6.25 150h150M6.25 134.459h150M6.25 118.918h150M6.25 103.378h150M6.25 87.837h150M6.25 72.296h150M6.25 56.755h150M6.25 41.214h150M6.25 25.673h150M6.25 10.133h150" stroke-width="2" opacity=".1"/><path fill="none" stroke="#729fcf" d="M6.25 150" stroke-width="2"/><path fill="none" stroke="#729fcf" d="M150.7 155.6c.35-2.1 4.2-5.25 5.25-5.6-1.05-.35-4.9-3.5-5.25-5.6" stroke-width="2" stroke-linejoin="round" stroke-linecap="round"/><path fill="none" stroke="#729fcf" d="M6.25 150H155.2M6.25 150" stroke-width="2"/><path fill="none" stroke="#729fcf" d="M12.6 6.3C10.5 5.95 7.35 2.1 7 1.05 6.65 2.1 3.5 5.95 1.4 6.3" stroke-width="2" stroke-linejoin="round" stroke-linecap="round"/><path fill="none" stroke="#729fcf" d="M6.25 150V1.05" stroke-width="2"/><path fill="none" stroke="#729fcf" d="M37.332 155v-10M68.413 155v-10M99.495 155v-10M130.577 155v-10M1.25 118.918h10M1.25 87.837h10M1.25 56.755h10M1.25 25.673h10"/>
<ellipse cx="61.908" cy="135.947" rx="2" ry="2" stroke="#f00" fill="#f00" stroke-width="2" clip-path="url(#a)"/><ellipse cx="47.697" cy="108.868" rx="2" ry="2" stroke="#f00" fill="#f00" stroke-width="2" clip-path="url(#a)"/><ellipse cx="61.197" cy="107.842" rx="2" ry="2" stroke="#f00" fill="#f00" stroke-width="2" clip-path="url(#a)"/><ellipse cx="67.434" cy="112.184" rx="2" ry="2" stroke="#f00" fill="#f00" stroke-width="2" clip-path="url(#a)"/><ellipse cx="31.039" cy="100.421" rx="2" ry="2" stroke="#f00" fill="#f00" stroke-width="2" clip-path="url(#a)"/><ellipse cx="45.882" cy="100.737" rx="2" ry="2" stroke="#f00" fill="#f00" stroke-width="2" clip-path="url(#a)"/><ellipse cx="64.434" cy="102" rx="2" ry="2" stroke="#f00" fill="#f00" stroke-width="2" clip-path="url(#a)"/><ellipse rx="2" ry="2" stroke="#f00" fill="#f00" stroke-width="2" clip-path="url(#a)"/><ellipse cx="69.961" cy="97.816" rx="2" ry="2" stroke="#f00" fill="#f00" stroke-width="2" clip-path="url(#a)"/><ellipse cx="77.066" cy="102.789" rx="2" ry="2" stroke="#f00" fill="#f00" stroke-width="2" clip-path="url(#a)"/><ellipse cx="14.224" cy="92.842" rx="2" ry="2" stroke="#f00" fill="#f00" stroke-width="2" clip-path="url(#a)"/><ellipse cx="45.171" cy="91.974" rx="2" ry="2" stroke="#f00" fill="#f00" stroke-width="2" clip-path="url(#a)"/><ellipse cx="51.013" cy="89.368" rx="2" ry="2" stroke="#f00" fill="#f00" stroke-width="2" clip-path="url(#a)"/><ellipse cx="54.171" cy="91.263" rx="2" ry="2" stroke="#f00" fill="#f00" stroke-width="2" clip-path="url(#a)"/><ellipse cx="59.066" cy="92.447" rx="2" ry="2" stroke="#f00" fill="#f00" stroke-width="2" clip-path="url(#a)"/><ellipse cx="62.697" cy="96.395" rx="2" ry="2" stroke="#f00" fill="#f00" stroke-width="2" clip-path="url(#a)"/><ellipse cx="72.329" cy="94.579" rx="2" ry="2" stroke="#f00" fill="#f00" stroke-width="2" clip-path="url(#a)"/><ellipse cx="66.092" cy="90.395" rx="2" ry="2" stroke="#f00" fill="#f00" stroke-width="2" clip-path="url(#a)"/><ellipse cx="80.224" cy="94.105" rx="2" ry="2" stroke="#f00" fill="#f00" stroke-width="2" clip-path="url(#a)"/><ellipse cx="75.408" cy="90.868" rx="2" ry="2" stroke="#f00" fill="#f00" stroke-width="2" clip-path="url(#a)"/><ellipse cx="83.618" cy="93.632" rx="2" ry="2" stroke="#f00" fill="#f00" stroke-width="2" clip-path="url(#a)"/><ellipse cx="97.276" cy="90.711" rx="2" ry="2" stroke="#f00" fill="#f00" stroke-width="2" clip-path="url(#a)"/><ellipse cx="42.092" cy="82.263" rx="2" ry="2" stroke="#f00" fill="#f00" stroke-width="2" clip-path="url(#a)"/><ellipse cx="52.118" cy="83.842" rx="2" ry="2" stroke="#f00" fill="#f00" stroke-width="2" clip-path="url(#a)"/><ellipse cx="57.25" cy="85.658" rx="2" ry="2" stroke="#f00" fill="#f00" stroke-width="2" clip-path="url(#a)"/><ellipse cx="61.276" cy="87.079" rx="2" ry="2" stroke="#f00" fill="#f00" stroke-width="2" clip-path="url(#a)"/><ellipse cx="59.224" cy="87.158" rx="2" ry="2" stroke="#f00" fill="#f00" stroke-width="2" clip-path="url(#a)"/><ellipse cx="67.355" cy="83.289" rx="2" ry="2" stroke="#f00" fill="#f00" stroke-width="2" clip-path="url(#a)"/><ellipse cx="65.461" cy="88.816" rx="2" ry="2" stroke="#f00" fill="#f00" stroke-width="2" clip-path="url(#a)"/><ellipse cx="65.855" cy="87.079" rx="2" ry="2" stroke="#f00" fill="#f00" stroke-width="2" clip-path="url(#a)"/><ellipse cx="76.513" cy="87.553" rx="2" ry="2" stroke="#f00" fill="#f00" stroke-width="2" clip-path="url(#a)"/><ellipse cx="73.908" cy="87.553" rx="2" ry="2" stroke="#f00" fill="#f00" stroke-width="2" clip-path="url(#a)"/><ellipse cx="73.592" cy="83.132" rx="2" ry="2" stroke="#f00" fill="#f00" stroke-width="2" clip-path="url(#a)"/><ellipse cx="84.487" cy="88.816" rx="2" ry="2" stroke="#f00" fill="#f00" stroke-width="2" clip-path="url(#a)"/><ellipse cx="87.487" cy="84.079" rx="2" ry="2" stroke="#f00" fill="#f00" stroke-width="2" clip-path="url(#a)"/><ellipse cx="83.145" cy="86.132" rx="2" ry="2" stroke="#f00" fill="#f00" stroke-width="2" clip-path="url(#a)"/><ellipse cx="88.908" cy="84.632" rx="2" ry="2" stroke="#f00" fill="#f00" stroke-width="2" clip-path="url(#a)"/><ellipse cx="96.092" cy="84.158" rx="2" ry="2" stroke="#f00" fill="#f00" stroke-width="2" clip-path="url(#a)"/><ellipse cx="115.355" cy="83.526" rx="2" ry="2" stroke="#f00" fill="#f00" stroke-width="2" clip-path="url(#a)"/><ellipse cx="41.145" cy="77.132" rx="2" ry="2" stroke="#f00" fill="#f00" stroke-width="2" clip-path="url(#a)"/><ellipse cx="57.487" cy="75.316" rx="2" ry="2" stroke="#f00" fill="#f00" stroke-width="2" clip-path="url(#a)"/><ellipse cx="57.487" cy="79.026" rx="2" ry="2" stroke="#f00" fill="#f00" stroke-width="2" clip-path="url(#a)"/><ellipse cx="52.987" cy="80.763" rx="2" ry="2" stroke="#f00" fill="#f00" stroke-width="2" clip-path="url(#a)"/><ellipse cx="65.066" cy="78.711" rx="2" ry="2" stroke="#f00" fill="#f00" stroke-width="2" clip-path="url(#a)"/><ellipse cx="61.75" cy="80.211" rx="2" ry="2" stroke="#f00" fill="#f00" stroke-width="2" clip-path="url(#a)"/><ellipse cx="66.803" cy="60.789" rx="2" ry="2" stroke="#f00" fill="#f00" stroke-width="2" clip-path="url(#a)"/><ellipse cx="90.408" cy="62.447" rx="2" ry="2" stroke="#f00" fill="#f00" stroke-width="2" clip-path="url(#a)"/><ellipse cx="73.75" cy="121.105" rx="2" ry="2" stroke="#f00" fill="#f00" stroke-width="2" clip-path="url(#a)"/><ellipse cx="60.408" cy="88.974" rx="2" ry="2" stroke="#f00" fill="#f00" stroke-width="2" clip-path="url(#a)"/><ellipse cx="97.908" cy="63.316" rx="2" ry="2" stroke="#f00" fill="#f00" stroke-width="2" clip-path="url(#a)"/><ellipse cx="60.013" cy="76.026" rx="2" ry="2" stroke="#f00" fill="#f00" stroke-width="2" clip-path="url(#a)"/><ellipse cx="64.118" cy="77.605" rx="2" ry="2" stroke="#f00" fill="#f00" stroke-width="2" clip-path="url(#a)"/><ellipse cx="68.066" cy="78.395" rx="2" ry="2" stroke="#f00" fill="#f00" stroke-width="2" clip-path="url(#a)"/><ellipse cx="68.066" cy="76.658" rx="2" ry="2" stroke="#f00" fill="#f00" stroke-width="2" clip-path="url(#a)"/><ellipse cx="65.934" cy="73.974" rx="2" ry="2" stroke="#f00" fill="#f00" stroke-width="2" clip-path="url(#a)"/><ellipse cx="68.382" cy="75.158" rx="2" ry="2" stroke="#f00" fill="#f00" stroke-width="2" clip-path="url(#a)"/><ellipse cx="67.592" cy="79.579" rx="2" ry="2" stroke="#f00" fill="#f00" stroke-width="2" clip-path="url(#a)"/><ellipse cx="78.013" cy="74.368" rx="2" ry="2" stroke="#f00" fill="#f00" stroke-width="2" clip-path="url(#a)"/><ellipse cx="74.224" cy="77.289" rx="2" ry="2" stroke="#f00" fill="#f00" stroke-width="2" clip-path="url(#a)"/><ellipse cx="80.539" cy="80.368" rx="2" ry="2" stroke="#f00" fill="#f00" stroke-width="2" clip-path="url(#a)"/><ellipse cx="79.513" cy="77.053" rx="2" ry="2" stroke="#f00" fill="#f00" stroke-width="2" clip-path="url(#a)"/><ellipse cx="74.224" cy="74.921" rx="2" ry="2" stroke="#f00" fill="#f00" stroke-width="2" clip-path="url(#a)"/><ellipse cx="86.539" cy="74.447" rx="2" ry="2" stroke="#f00" fill="#f00" stroke-width="2" clip-path="url(#a)"/><ellipse cx="83.697" cy="77.605" rx="2" ry="2" stroke="#f00" fill="#f00" stroke-width="2" clip-path="url(#a)"/><ellipse cx="87.803" cy="74.684" rx="2" ry="2" stroke="#f00" fill="#f00" stroke-width="2" clip-path="url(#a)"/><ellipse cx="85.829" cy="76.026" rx="2" ry="2" stroke="#f00" fill="#f00" stroke-width="2" clip-path="url(#a)"/><ellipse cx="92.855" cy="74.211" rx="2" ry="2" stroke="#f00" fill="#f00" stroke-width="2" clip-path="url(#a)"/><ellipse cx="92.539" cy="76.974" rx="2" ry="2" stroke="#f00" fill="#f00" stroke-width="2" clip-path="url(#a)"/><ellipse cx="97.908" cy="80.289" rx="2" ry="2" stroke="#f00" fill="#f00" stroke-width="2" clip-path="url(#a)"/><ellipse cx="103.829" cy="81.079" rx="2" ry="2" stroke="#f00" fill="#f00" stroke-width="2" clip-path="url(#a)"/><ellipse cx="101.066" cy="79.5" rx="2" ry="2" stroke="#f00" fill="#f00" stroke-width="2" clip-path="url(#a)"/><ellipse cx="122.697" cy="73.816" rx="2" ry="2" stroke="#f00" fill="#f00" stroke-width="2" clip-path="url(#a)"/><ellipse cx="44.303" cy="70.737" rx="2" ry="2" stroke="#f00" fill="#f00" stroke-width="2" clip-path="url(#a)"/><ellipse cx="44.697" cy="67.184" rx="2" ry="2" stroke="#f00" fill="#f00" stroke-width="2" clip-path="url(#a)"/><ellipse cx="52.908" cy="70.658" rx="2" ry="2" stroke="#f00" fill="#f00" stroke-width="2" clip-path="url(#a)"/><ellipse cx="57.882" cy="68.289" rx="2" ry="2" stroke="#f00" fill="#f00" stroke-width="2" clip-path="url(#a)"/><ellipse cx="57.724" cy="68.368" rx="2" ry="2" stroke="#f00" fill="#f00" stroke-width="2" clip-path="url(#a)"/><ellipse cx="69.645" cy="68.605" rx="2" ry="2" stroke="#f00" fill="#f00" stroke-width="2" clip-path="url(#a)"/><ellipse cx="67.908" cy="69.632" rx="2" ry="2" stroke="#f00" fill="#f00" stroke-width="2" clip-path="url(#a)"/><ellipse cx="69.566" cy="67.026" rx="2" ry="2" stroke="#f00" fill="#f00" stroke-width="2" clip-path="url(#a)"/><ellipse cx="65.776" cy="70.105" rx="2" ry="2" stroke="#f00" fill="#f00" stroke-width="2" clip-path="url(#a)"/><ellipse cx="67.276" cy="68.526" rx="2" ry="2" stroke="#f00" fill="#f00" stroke-width="2" clip-path="url(#a)"/><ellipse cx="75.487" cy="70.658" rx="2" ry="2" stroke="#f00" fill="#f00" stroke-width="2" clip-path="url(#a)"/><ellipse cx="74.776" cy="66.237" rx="2" ry="2" stroke="#f00" fill="#f00" stroke-width="2" clip-path="url(#a)"/><ellipse cx="77.145" cy="71.526" rx="2" ry="2" stroke="#f00" fill="#f00" stroke-width="2" clip-path="url(#a)"/><ellipse cx="76.829" cy="70.421" rx="2" ry="2" stroke="#f00" fill="#f00" stroke-width="2" clip-path="url(#a)"/><ellipse cx="76.118" cy="68.132" rx="2" ry="2" stroke="#f00" fill="#f00" stroke-width="2" clip-path="url(#a)"/><ellipse cx="78.25" cy="72.237" rx="2" ry="2" stroke="#f00" fill="#f00" stroke-width="2" clip-path="url(#a)"/><ellipse cx="83.145" cy="69.474" rx="2" ry="2" stroke="#f00" fill="#f00" stroke-width="2" clip-path="url(#a)"/><ellipse cx="87.329" cy="70.895" rx="2" ry="2" stroke="#f00" fill="#f00" stroke-width="2" clip-path="url(#a)"/><ellipse cx="82.118" cy="69.237" rx="2" ry="2" stroke="#f00" fill="#f00" stroke-width="2" clip-path="url(#a)"/><ellipse cx="88.75" cy="71.842" rx="2" ry="2" stroke="#f00" fill="#f00" stroke-width="2" clip-path="url(#a)"/><ellipse cx="82.513" cy="66.158" rx="2" ry="2" stroke="#f00" fill="#f00" stroke-width="2" clip-path="url(#a)"/><ellipse cx="90.803" cy="71.211" rx="2" ry="2" stroke="#f00" fill="#f00" stroke-width="2" clip-path="url(#a)"/><ellipse cx="95.618" cy="68.921" rx="2" ry="2" stroke="#f00" fill="#f00" stroke-width="2" clip-path="url(#a)"/><ellipse cx="91.039" cy="71.526" rx="2" ry="2" stroke="#f00" fill="#f00" stroke-width="2" clip-path="url(#a)"/><ellipse cx="94.118" cy="66.158" rx="2" ry="2" stroke="#f00" fill="#f00" stroke-width="2" clip-path="url(#a)"/><ellipse cx="95.855" cy="69.158" rx="2" ry="2" stroke="#f00" fill="#f00" stroke-width="2" clip-path="url(#a)"/><ellipse cx="90.171" cy="66.395" rx="2" ry="2" stroke="#f00" fill="#f00" stroke-width="2" clip-path="url(#a)"/><ellipse cx="97.671" cy="70.5" rx="2" ry="2" stroke="#f00" fill="#f00" stroke-width="2" clip-path="url(#a)"/><ellipse cx="104.145" cy="68.053" rx="2" ry="2" stroke="#f00" fill="#f00" stroke-width="2" clip-path="url(#a)"/><ellipse cx="110.382" cy="72.947" rx="2" ry="2" stroke="#f00" fill="#f00" stroke-width="2" clip-path="url(#a)"/><ellipse cx="107.461" cy="66.316" rx="2" ry="2" stroke="#f00" fill="#f00" stroke-width="2" clip-path="url(#a)"/><ellipse cx="114.013" cy="71.763" rx="2" ry="2" stroke="#f00" fill="#f00" stroke-width="2" clip-path="url(#a)"/><ellipse cx="126.882" cy="72.316" rx="2" ry="2" stroke="#f00" fill="#f00" stroke-width="2" clip-path="url(#a)"/><ellipse cx="46.039" cy="64.895" rx="2" ry="2" stroke="#f00" fill="#f00" stroke-width="2" clip-path="url(#a)"/><ellipse cx="50.934" cy="58.342" rx="2" ry="2" stroke="#f00" fill="#f00" stroke-width="2" clip-path="url(#a)"/><ellipse cx="64.513" cy="57.711" rx="2" ry="2" stroke="#f00" fill="#f00" stroke-width="2" clip-path="url(#a)"/><ellipse cx="58.355" cy="59.921" rx="2" ry="2" stroke="#f00" fill="#f00" stroke-width="2" clip-path="url(#a)"/><ellipse cx="72.645" cy="57.711" rx="2" ry="2" stroke="#f00" fill="#f00" stroke-width="2" clip-path="url(#a)"/><ellipse cx="67.592" cy="61.5" rx="2" ry="2" stroke="#f00" fill="#f00" stroke-width="2" clip-path="url(#a)"/><ellipse cx="66.803" cy="59.526" rx="2" ry="2" stroke="#f00" fill="#f00" stroke-width="2" clip-path="url(#a)"/><ellipse cx="69.882" cy="58.421" rx="2" ry="2" stroke="#f00" fill="#f00" stroke-width="2" clip-path="url(#a)"/><ellipse cx="73.75" cy="60.947" rx="2" ry="2" stroke="#f00" fill="#f00" stroke-width="2" clip-path="url(#a)"/><ellipse cx="73.908" cy="59.053" rx="2" ry="2" stroke="#f00" fill="#f00" stroke-width="2" clip-path="url(#a)"/><ellipse cx="74.539" cy="65.211" rx="2" ry="2" stroke="#f00" fill="#f00" stroke-width="2" clip-path="url(#a)"/><ellipse cx="82.987" cy="60.711" rx="2" ry="2" stroke="#f00" fill="#f00" stroke-width="2" clip-path="url(#a)"/><ellipse cx="89.066" cy="61.342" rx="2" ry="2" stroke="#f00" fill="#f00" stroke-width="2" clip-path="url(#a)"/><ellipse cx="83.855" cy="61.263" rx="2" ry="2" stroke="#f00" fill="#f00" stroke-width="2" clip-path="url(#a)"/><ellipse cx="81.724" cy="59.289" rx="2" ry="2" stroke="#f00" fill="#f00" stroke-width="2" clip-path="url(#a)"/><ellipse cx="85.829" cy="62.211" rx="2" ry="2" stroke="#f00" fill="#f00" stroke-width="2" clip-path="url(#a)"/><ellipse cx="94.434" cy="63.632" rx="2" ry="2" stroke="#f00" fill="#f00" stroke-width="2" clip-path="url(#a)"/><ellipse cx="90.645" cy="59.526" rx="2" ry="2" stroke="#f00" fill="#f00" stroke-width="2" clip-path="url(#a)"/><ellipse cx="90.092" cy="60.947" rx="2" ry="2" stroke="#f00" fill="#f00" stroke-width="2" clip-path="url(#a)"/><ellipse cx="90.329" cy="61.342" rx="2" ry="2" stroke="#f00" fill="#f00" stroke-width="2" clip-path="url(#a)"/><ellipse cx="90.092" cy="65.447" rx="2" ry="2" stroke="#f00" fill="#f00" stroke-width="2" clip-path="url(#a)"/><ellipse cx="103.829" cy="60.395" rx="2" ry="2" stroke="#f00" fill="#f00" stroke-width="2" clip-path="url(#a)"/><ellipse cx="101.066" cy="64.184" rx="2" ry="2" stroke="#f00" fill="#f00" stroke-width="2" clip-path="url(#a)"/><ellipse cx="102.092" cy="60.789" rx="2" ry="2" stroke="#f00" fill="#f00" stroke-width="2" clip-path="url(#a)"/><ellipse cx="102.645" cy="61.895" rx="2" ry="2" stroke="#f00" fill="#f00" stroke-width="2" clip-path="url(#a)"/><ellipse cx="111.092" cy="58.184" rx="2" ry="2" stroke="#f00" fill="#f00" stroke-width="2" clip-path="url(#a)"/><ellipse cx="108.092" cy="62.289" rx="2" ry="2" stroke="#f00" fill="#f00" stroke-width="2" clip-path="url(#a)"/><ellipse cx="118.276" cy="62.368" rx="2" ry="2" stroke="#f00" fill="#f00" stroke-width="2" clip-path="url(#a)"/><ellipse cx="140.145" cy="62.921" rx="2" ry="2" stroke="#f00" fill="#f00" stroke-width="2" clip-path="url(#a)"/><ellipse cx="60.566" cy="56.368" rx="2" ry="2" stroke="#f00" fill="#f00" stroke-width="2" clip-path="url(#a)"/><ellipse cx="65.855" cy="54.789" rx="2" ry="2" stroke="#f00" fill="#f00" stroke-width="2" clip-path="url(#a)"/><ellipse cx="66.724" cy="56.053" rx="2" ry="2" stroke="#f00" fill="#f00" stroke-width="2" clip-path="url(#a)"/><ellipse cx="68.855" cy="53.211" rx="2" ry="2" stroke="#f00" fill="#f00" stroke-width="2" clip-path="url(#a)"/><ellipse cx="68.934" cy="51.079" rx="2" ry="2" stroke="#f00" fill="#f00" stroke-width="2" clip-path="url(#a)"/><ellipse cx="80.776" cy="51.079" rx="2" ry="2" stroke="#f00" fill="#f00" stroke-width="2" clip-path="url(#a)"/><ellipse cx="81.092" cy="56.921" rx="2" ry="2" stroke="#f00" fill="#f00" stroke-width="2" clip-path="url(#a)"/><ellipse cx="82.118" cy="52.342" rx="2" ry="2" stroke="#f00" fill="#f00" stroke-width="2" clip-path="url(#a)"/><ellipse cx="88.75" cy="55.421" rx="2" ry="2" stroke="#f00" fill="#f00" stroke-width="2" clip-path="url(#a)"/><ellipse cx="89.066" cy="56.605" rx="2" ry="2" stroke="#f00" fill="#f00" stroke-width="2" clip-path="url(#a)"/><ellipse cx="86.066" cy="49.737" rx="2" ry="2" stroke="#f00" fill="#f00" stroke-width="2" clip-path="url(#a)"/><ellipse cx="96.882" cy="53.921" rx="2" ry="2" stroke="#f00" fill="#f00" stroke-width="2" clip-path="url(#a)"/><ellipse cx="93.645" cy="54.316" rx="2" ry="2" stroke="#f00" fill="#f00" stroke-width="2" clip-path="url(#a)"/><ellipse cx="96.171" cy="55.658" rx="2" ry="2" stroke="#f00" fill="#f00" stroke-width="2" clip-path="url(#a)"/><ellipse cx="96.566" cy="52.816" rx="2" ry="2" stroke="#f00" fill="#f00" stroke-width="2" clip-path="url(#a)"/><ellipse cx="97.197" cy="56.763" rx="2" ry="2" stroke="#f00" fill="#f00" stroke-width="2" clip-path="url(#a)"/><ellipse cx="102.171" cy="55.5" rx="2" ry="2" stroke="#f00" fill="#f00" stroke-width="2" clip-path="url(#a)"/><ellipse cx="99.961" cy="55.737" rx="2" ry="2" stroke="#f00" fill="#f00" stroke-width="2" clip-path="url(#a)"/><ellipse cx="104.461" cy="57.395" rx="2" ry="2" stroke="#f00" fill="#f00" stroke-width="2" clip-path="url(#a)"/><ellipse cx="107.697" cy="54.632" rx="2" ry="2" stroke="#f00" fill="#f00" stroke-width="2" clip-path="url(#a)"/><ellipse cx="111.25" cy="55.184" rx="2" ry="2" stroke="#f00" fill="#f00" stroke-width="2" clip-path="url(#a)"/><ellipse cx="117.882" cy="50.132" rx="2" ry="2" stroke="#f00" fill="#f00" stroke-width="2" clip-path="url(#a)"/><ellipse cx="118.276" cy="55.184" rx="2" ry="2" stroke="#f00" fill="#f00" stroke-width="2" clip-path="url(#a)"/><ellipse cx="143.855" cy="54.553" rx="2" ry="2" stroke="#f00" fill="#f00" stroke-width="2" clip-path="url(#a)"/><ellipse cx="57.724" cy="44.684" rx="2" ry="2" stroke="#f00" fill="#f00" stroke-width="2" clip-path="url(#a)"/><ellipse cx="72.25" cy="48.789" rx="2" ry="2" stroke="#f00" fill="#f00" stroke-width="2" clip-path="url(#a)"/><ellipse cx="66.013" cy="43.816" rx="2" ry="2" stroke="#f00" fill="#f00" stroke-width="2" clip-path="url(#a)"/><ellipse cx="75.645" cy="45.868" rx="2" ry="2" stroke="#f00" fill="#f00" stroke-width="2" clip-path="url(#a)"/><ellipse cx="76.592" cy="42.158" rx="2" ry="2" stroke="#f00" fill="#f00" stroke-width="2" clip-path="url(#a)"/><ellipse cx="86.539" cy="44.211" rx="2" ry="2" stroke="#f00" fill="#f00" stroke-width="2" clip-path="url(#a)"/><ellipse cx="81.25" cy="49.421" rx="2" ry="2" stroke="#f00" fill="#f00" stroke-width="2" clip-path="url(#a)"/><ellipse cx="83.855" cy="45.316" rx="2" ry="2" stroke="#f00" fill="#f00" stroke-width="2" clip-path="url(#a)"/><ellipse cx="92.697" cy="46.974" rx="2" ry="2" stroke="#f00" fill="#f00" stroke-width="2" clip-path="url(#a)"/><ellipse cx="95.145" cy="45.316" rx="2" ry="2" stroke="#f00" fill="#f00" stroke-width="2" clip-path="url(#a)"/><ellipse cx="91.039" cy="48.237" rx="2" ry="2" stroke="#f00" fill="#f00" stroke-width="2" clip-path="url(#a)"/><ellipse cx="98.934" cy="44.842" rx="2" ry="2" stroke="#f00" fill="#f00" stroke-width="2" clip-path="url(#a)"/><ellipse cx="103.355" cy="42.947" rx="2" ry="2" stroke="#f00" fill="#f00" stroke-width="2" clip-path="url(#a)"/><ellipse cx="101.303" cy="45.947" rx="2" ry="2" stroke="#f00" fill="#f00" stroke-width="2" clip-path="url(#a)"/><ellipse cx="102.882" cy="47.132" rx="2" ry="2" stroke="#f00" fill="#f00" stroke-width="2" clip-path="url(#a)"/><ellipse cx="107.934" cy="44.447" rx="2" ry="2" stroke="#f00" fill="#f00" stroke-width="2" clip-path="url(#a)"/><ellipse cx="110.382" cy="42.237" rx="2" ry="2" stroke="#f00" fill="#f00" stroke-width="2" clip-path="url(#a)"/><ellipse cx="119.697" cy="46.421" rx="2" ry="2" stroke="#f00" fill="#f00" stroke-width="2" clip-path="url(#a)"/><ellipse cx="124.908" cy="48" rx="2" ry="2" stroke="#f00" fill="#f00" stroke-width="2" clip-path="url(#a)"/><ellipse cx="138.961" cy="42.158" rx="2" ry="2" stroke="#f00" fill="#f00" stroke-width="2" clip-path="url(#a)"/><ellipse cx="80.461" cy="36.395" rx="2" ry="2" stroke="#f00" fill="#f00" stroke-width="2" clip-path="url(#a)"/><ellipse cx="79.829" cy="40.421" rx="2" ry="2" stroke="#f00" fill="#f00" stroke-width="2" clip-path="url(#a)"/><ellipse cx="83.461" cy="36.789" rx="2" ry="2" stroke="#f00" fill="#f00" stroke-width="2" clip-path="url(#a)"/><ellipse cx="95.776" cy="38.132" rx="2" ry="2" stroke="#f00" fill="#f00" stroke-width="2" clip-path="url(#a)"/><ellipse cx="90.882" cy="35.368" rx="2" ry="2" stroke="#f00" fill="#f00" stroke-width="2" clip-path="url(#a)"/><ellipse cx="100.908" cy="39.553" rx="2" ry="2" stroke="#f00" fill="#f00" stroke-width="2" clip-path="url(#a)"/><ellipse cx="99.013" cy="36.789" rx="2" ry="2" stroke="#f00" fill="#f00" stroke-width="2" clip-path="url(#a)"/><ellipse cx="106.197" cy="35.921" rx="2" ry="2" stroke="#f00" fill="#f00" stroke-width="2" clip-path="url(#a)"/><ellipse cx="109.75" cy="37.342" rx="2" ry="2" stroke="#f00" fill="#f00" stroke-width="2" clip-path="url(#a)"/><ellipse cx="120.566" cy="39.711" rx="2" ry="2" stroke="#f00" fill="#f00" stroke-width="2" clip-path="url(#a)"/><ellipse cx="120.566" cy="38.053" rx="2" ry="2" stroke="#f00" fill="#f00" stroke-width="2" clip-path="url(#a)"/><ellipse cx="81.408" cy="33.237" rx="2" ry="2" stroke="#f00" fill="#f00" stroke-width="2" clip-path="url(#a)"/><ellipse cx="87.092" cy="31.263" rx="2" ry="2" stroke="#f00" fill="#f00" stroke-width="2" clip-path="url(#a)"/><ellipse cx="91.513" cy="32.526" rx="2" ry="2" stroke="#f00" fill="#f00" stroke-width="2" clip-path="url(#a)"/><ellipse cx="100.197" cy="30.237" rx="2" ry="2" stroke="#f00" fill="#f00" stroke-width="2" clip-path="url(#a)"/><ellipse cx="112.75" cy="26.605" rx="2" ry="2" stroke="#f00" fill="#f00" stroke-width="2" clip-path="url(#a)"/><ellipse cx="106.987" cy="32.526" rx="2" ry="2" stroke="#f00" fill="#f00" stroke-width="2" clip-path="url(#a)"/><ellipse cx="116.066" cy="30.158" rx="2" ry="2" stroke="#f00" fill="#f00" stroke-width="2" clip-path="url(#a)"/><ellipse cx="46.355" cy="21.158" rx="2" ry="2" stroke="#f00" fill="#f00" stroke-width="2" clip-path="url(#a)"/><ellipse cx="87.013" cy="20.447" rx="2" ry="2" stroke="#f00" fill="#f00" stroke-width="2" clip-path="url(#a)"/><ellipse cx="101.461" cy="25.5" rx="2" ry="2" stroke="#f00" fill="#f00" stroke-width="2" clip-path="url(#a)"/><ellipse cx="107.618" cy="24.316" rx="2" ry="2" stroke="#f00" fill="#f00" stroke-width="2" clip-path="url(#a)"/></svg>
