<svg xmlns="http://www.w3.org/2000/svg" width="156.25" height="156.25" viewBox="0 0 156.25 156.25"><defs><clipPath id="a"><path d="M6.25 0h150v150h-150z"/></clipPath></defs><path fill="none" stroke="#729fcf" d="M6.25 150V0M14.017 150V0M21.784 150V0M29.552 150V0M37.319 150V0M45.086 150V0M52.853 150V0M60.62 150V0M68.387 150V0M76.154 150V0M83.922 150V0M91.689 150V0M99.456 150V0M107.223 150V0M114.99 150V0M122.757 150V0M130.525 150V0M138.292 150V0M146.059 150V0M153.826 150V0M6.25 150h150M6.25 135h150M6.25 120h150M6.25 105h150M6.25 90h150M6.25 75h150M6.25 60h150M6.25 45h150M6.25 30h150M6.25 15h150M6.25 0h150" stroke-width="2" opacity=".1"/><path fill="none" stroke="#729fcf" d="M6.25 150" stroke-width="2"/><path fill="none" stroke="#729fcf" d="M150.7 155.6c.35-2.1 4.2-5.25 5.25-5.6-1.05-.35-4.9-3.5-5.25-5.6" stroke-width="2" stroke-linejoin="round" stroke-linecap="round"/><path fill="none" stroke="#729fcf" d="M6.25 150H155.2M6.25 150" stroke-width="2"/><path fill="none" stroke="#729fcf" d="M12.6 6.3C10.5 5.95 7.35 2.1 7 1.05 6.65 2.1 3.5 5.95 1.4 6.3" stroke-width="2" stroke-linejoin="round" stroke-linecap="round"/><path fill="none" stroke="#729fcf" d="M6.25 150V1.05" stroke-width="2"/><path fill="none" stroke="#729fcf" d="M21.784 155v-10M37.319 155v-10M52.853 155v-10M68.387 155v-10M83.922 155v-10M99.456 155v-10M114.99 155v-10M130.525 155v-10M146.059 155v-10M1.25 135h10M1.25 120h10M1.25 105h10M1.25 90h10M1.25 75h10M1.25 60h10M1.25 45h10M1.25 30h10M1.25 15h10"/><ellipse cx="141.015" cy="39.45" rx="2" ry="2" stroke="#f00" fill="#f00" stroke-width="2" clip-path="url(#a)"/><ellipse cx="65.59" cy="77.55" rx="2" ry="2" stroke="#f00" fill="#f00" stroke-width="2" clip-path="url(#a)"/><ellipse cx="39.365" cy="79.125" rx="2" ry="2" stroke="#f00" fill="#f00" stroke-width="2" clip-path="url(#a)"/><ellipse cx="62.415" cy="66.075" rx="2" ry="2" stroke="#f00" fill="#f00" stroke-width="2" clip-path="url(#a)"/><ellipse cx="11.65" cy="88.125" rx="2" ry="2" stroke="#f00" fill="#f00" stroke-width="2" clip-path="url(#a)"/><ellipse cx="21.25" cy="101.25" rx="2" ry="2" stroke="#f00" fill="#f00" stroke-width="2" clip-path="url(#a)"/><ellipse cx="26.265" cy="46.35" rx="2" ry="2" stroke="#f00" fill="#f00" stroke-width="2" clip-path="url(#a)"/><ellipse cx="118.75" cy="30" rx="2" ry="2" stroke="#f00" fill="#f00" stroke-width="2" clip-path="url(#a)"/><ellipse cx="52.53" cy="29.25" rx="2" ry="2" stroke="#f00" fill="#f00" stroke-width="2" clip-path="url(#a)"/><ellipse cx="92.48" cy="15.375" rx="2" ry="2" stroke="#f00" fill="#f00" stroke-width="2" clip-path="url(#a)"/><ellipse cx="92.05" cy="50.85" rx="2" ry="2" stroke="#f00" fill="#f00" stroke-width="2" clip-path="url(#a)"/><ellipse cx="22.19" cy="114.45" rx="2" ry="2" stroke="#f00" fill="#f00" stroke-width="2" clip-path="url(#a)"/><ellipse cx="81.96" cy="88.425" rx="2" ry="2" stroke="#f00" fill="#f00" stroke-width="2" clip-path="url(#a)"/><ellipse cx="72.855" cy="41.7" rx="2" ry="2" stroke="#f00" fill="#f00" stroke-width="2" clip-path="url(#a)"/><ellipse cx="31.25" cy="75" rx="2" ry="2" stroke="#f00" fill="#f00" stroke-width="2" clip-path="url(#a)"/><ellipse cx="51.25" cy="52.5" rx="2" ry="2" stroke="#f00" fill="#f00" stroke-width="2" clip-path="url(#a)"/><ellipse cx="56.25" cy="41.7" rx="2" ry="2" stroke="#f00" fill="#f00" stroke-width="2" clip-path="url(#a)"/><ellipse cx="86.25" cy="37.5" rx="2" ry="2" stroke="#f00" fill="#f00" stroke-width="2" clip-path="url(#a)"/><ellipse cx="96.25" cy="30" rx="2" ry="2" stroke="#f00" fill="#f00" stroke-width="2" clip-path="url(#a)"/><ellipse cx="101.25" cy="41.7" rx="2" ry="2" stroke="#f00" fill="#f00" stroke-width="2" clip-path="url(#a)"/><ellipse cx="111.25" cy="22.5" rx="2" ry="2" stroke="#f00" fill="#f00" stroke-width="2" clip-path="url(#a)"/><ellipse cx="126.25" cy="41.7" rx="2" ry="2" stroke="#f00" fill="#f00" stroke-width="2" clip-path="url(#a)"/><ellipse cx="131.25" cy="15" rx="2" ry="2" stroke="#f00" fill="#f00" stroke-width="2" clip-path="url(#a)"/><ellipse cx="136.25" cy="7.5" rx="2" ry="2" stroke="#f00" fill="#f00" stroke-width="2" clip-path="url(#a)"/><ellipse cx="122.25" cy="15" rx="2" ry="2" stroke="#f00" fill="#f00" stroke-width="2" clip-path="url(#a)"/></svg>
