<svg xmlns="http://www.w3.org/2000/svg" width="155.769" height="155" viewBox="0 0 155.76923076923077 155"><defs><clipPath id="a"><path d="M5.769 0h150v150h-150z"/></clipPath></defs><path fill="none" stroke="#729fcf" d="M5.77 150V0M28.846 150V0M51.923 150V0M75 150V0M98.077 150V0M121.154 150V0M144.231 150V0M5.77 150h149.999M5.77 133.333h149.999M5.77 116.667h149.999M5.77 100h149.999M5.77 83.333h149.999M5.77 66.667h149.999M5.77 50h149.999M5.77 33.333h149.999M5.77 16.667h149.999M5.77 0h149.999" stroke-width="2" opacity=".1"/><path fill="none" stroke="#729fcf" d="M5.77 150" stroke-width="2"/><path fill="none" stroke="#729fcf" d="M150.219 155.6c.35-2.1 4.2-5.25 5.25-5.6-1.05-.35-4.9-3.5-5.25-5.6" stroke-width="2" stroke-linejoin="round" stroke-linecap="round"/><path fill="none" stroke="#729fcf" d="M5.77 150h148.949M5.77 150" stroke-width="2"/><path fill="none" stroke="#729fcf" d="M12.12 6.3c-2.1-.35-5.25-4.2-5.6-5.25-.35 1.05-3.5 4.9-5.6 5.25" stroke-width="2" stroke-linejoin="round" stroke-linecap="round"/><path fill="none" stroke="#729fcf" d="M5.77 150V1.05" stroke-width="2"/><path fill="none" stroke="#729fcf" d="M51.923 155v-10M98.077 155v-10M144.231 155v-10M.77 116.667h10M.77 83.333h10M.77 50h10M.77 16.667h10"/><ellipse cx="17.308" cy="66.667" rx="2" ry="2" stroke="#f00" fill="#f00" stroke-width="2" clip-path="url(#a)"/><ellipse cx="86.538" cy="120" rx="2" ry="2" stroke="#f00" fill="#f00" stroke-width="2" clip-path="url(#a)"/><ellipse cx="21" cy="76.667" rx="2" ry="2" stroke="#f00" fill="#f00" stroke-width="2" clip-path="url(#a)"/><ellipse cx="27.692" cy="76.667" rx="2" ry="2" stroke="#f00" fill="#f00" stroke-width="2" clip-path="url(#a)"/><ellipse cx="12.692" cy="-83.333" rx="2" ry="2" stroke="#f00" fill="#f00" stroke-width="2" clip-path="url(#a)"/><ellipse cx="13.615" cy="16.667" rx="2" ry="2" stroke="#f00" fill="#f00" stroke-width="2" clip-path="url(#a)"/><ellipse cx="144.231" cy="136.667" rx="2" ry="2" stroke="#f00" fill="#f00" stroke-width="2" clip-path="url(#a)"/><ellipse cx="27.692" cy="66.667" rx="2" ry="2" stroke="#f00" fill="#f00" stroke-width="2" clip-path="url(#a)"/><ellipse cx="66.923" cy="120" rx="2" ry="2" stroke="#f00" fill="#f00" stroke-width="2" clip-path="url(#a)"/><ellipse cx="23.077" cy="100" rx="2" ry="2" stroke="#f00" fill="#f00" stroke-width="2" clip-path="url(#a)"/><ellipse cx="23.077" cy="100" rx="2" ry="2" stroke="#f00" fill="#f00" stroke-width="2" clip-path="url(#a)"/><ellipse cx="63.462" cy="123.333" rx="2" ry="2" stroke="#f00" fill="#f00" stroke-width="2" clip-path="url(#a)"/><ellipse cx="109.615" cy="136.667" rx="2" ry="2" stroke="#f00" fill="#f00" stroke-width="2" clip-path="url(#a)"/><ellipse cx="16.846" cy="83.333" rx="2" ry="2" stroke="#f00" fill="#f00" stroke-width="2" clip-path="url(#a)"/><ellipse cx="92.308" cy="136.667" rx="2" ry="2" stroke="#f00" fill="#f00" stroke-width="2" clip-path="url(#a)"/><ellipse cx="10.385" cy="-83.333" rx="2" ry="2" stroke="#f00" fill="#f00" stroke-width="2" clip-path="url(#a)"/><ellipse cx="17.308" cy="100" rx="2" ry="2" stroke="#f00" fill="#f00" stroke-width="2" clip-path="url(#a)"/><ellipse cx="28.846" cy="100" rx="2" ry="2" stroke="#f00" fill="#f00" stroke-width="2" clip-path="url(#a)"/><ellipse cx="24.231" cy="106.667" rx="2" ry="2" stroke="#f00" fill="#f00" stroke-width="2" clip-path="url(#a)"/><ellipse cx="98.077" cy="123.333" rx="2" ry="2" stroke="#f00" fill="#f00" stroke-width="2" clip-path="url(#a)"/><ellipse cx="17.308" cy="50" rx="2" ry="2" stroke="#f00" fill="#f00" stroke-width="2" clip-path="url(#a)"/><ellipse cx="40.385" cy="100" rx="2" ry="2" stroke="#f00" fill="#f00" stroke-width="2" clip-path="url(#a)"/><ellipse cx="51.923" cy="116.667" rx="2" ry="2" stroke="#f00" fill="#f00" stroke-width="2" clip-path="url(#a)"/><ellipse cx="75" cy="133.333" rx="2" ry="2" stroke="#f00" fill="#f00" stroke-width="2" clip-path="url(#a)"/><ellipse cx="34.615" cy="123.333" rx="2" ry="2" stroke="#f00" fill="#f00" stroke-width="2" clip-path="url(#a)"/></svg>
