<svg
   width="430"
   height="220"
   xmlns="http://www.w3.org/2000/svg">
  <rect
     x="10"
     y="50"
     ry="19"
     width="260"
     height="170"
     style="color:#000;overflow:visible;opacity:0.3;fill:#acf;stroke-width:1"
     id="rect6" />

  <text
     x="25"
     y="80"
     style="color:#000;font-size:24px;font-family:Verdana;overflow:visible;fill:#a52a2a;stroke-width:0.2px"
     id="batang">Batang</text>

  <text
     x="137.244"
     y="81.199997"
     style="color:#000;font-size:24px;font-family:Verdana;overflow:visible;fill:#080;stroke-width:0.2px"
     id="daun">Daun</text>

  <path
     id="garis"
     style="fill:#00f;fill-opacity:0.75;stroke:#0000ff;stroke-width:1.3"
     d="M 20,88 H 260 M 120,88 V 210" />

  <circle id="dataFokus" cx="342.5" cy="22" r="20" style="color:#000;overflow:visible;opacity:1;fill:#c8e1ff;stroke-width:1.23" />

  <circle id="batangFokus" cx="100" cy="165" r="17" style="color:#000;overflow:visible;opacity:1;fill:#ffb887;stroke-width:1.23" />

  <circle id="daunFokus" cx="171" cy="165" r="17" style="color:#000;overflow:visible;opacity:1;fill:#bf0;stroke-width:1.23" />

  <text
     x="91.343498"
     y="114.5"
     style="color:#000;font-size:26px;font-family:Verdana;overflow:visible;fill:brown;stroke-width:0.2px"
     id="batang1">2</text>
  <text
     x="91.543503"
     y="144.89999"
     style="color:#000;font-size:26px;font-family:Verdana;overflow:visible;fill:brown;stroke-width:0.2px"
     id="batang2">3</text>
  <text
     x="91.643501"
     y="175.10001"
     style="color:#000;font-size:26px;font-family:Verdana;overflow:visible;fill:brown;stroke-width:0.2px"
     id="batang3">4</text>
  <text
     x="91.943497"
     y="205.10001"
     style="color:#000;font-size:26px;font-family:Verdana;overflow:visible;fill:brown;stroke-width:0.2px"
     id="batang4">5</text>

  <text
     x="136.644"
     y="113.1"
     style="color:#000;font-size:26px;font-family:Verdana;overflow:visible;fill:#0b0;stroke-width:0.2px"
     id="daun1">7 8</text>
  <text
     x="136.444"
     y="143.5"
     style="color:#000;font-size:26px;font-family:Verdana;overflow:visible;fill:#0b0;stroke-width:0.2px"
     id="daun 2">1 2 4 4 7</text>
  <text
     x="136.84399"
     y="173.7"
     style="color:#000;font-size:26px;font-family:Verdana;overflow:visible;fill:#0b0;stroke-width:0.2px"
     id="daun3">2 6</text>
  <text
     x="136.444"
     y="205.2"
     style="color:#000;font-size:26px;font-family:Verdana;overflow:visible;fill:#0b0;stroke-width:0.2px"
     id="daun4">0</text>

  <text
     x="45"
     y="30"
     style="color:#000;font-size:22px;font-family:Verdana;text-align:end;writing-mode:lr-tb;text-anchor:end;overflow:visible;fill:#75507b;stroke-width:0.2px"
     id="ke1">27,</text>
  <text
     x="85"
     y="30"
     style="color:#000;font-size:22px;font-family:Verdana;text-align:end;writing-mode:lr-tb;text-anchor:end;overflow:visible;fill:#75507b;stroke-width:0.2px"
     id="ke2">28,</text>
  <text
     x="125"
     y="30"
     style="color:#000;font-size:22px;font-family:Verdana;text-align:end;writing-mode:lr-tb;text-anchor:end;overflow:visible;fill:#75507b;stroke-width:0.2px"
     id="ke3">31,</text>
  <text
     x="165"
     y="30"
     style="color:#000;font-size:22px;font-family:Verdana;text-align:end;writing-mode:lr-tb;text-anchor:end;overflow:visible;fill:#75507b;stroke-width:0.2px"
     id="ke4">32,</text>
  <text
     x="205"
     y="30"
     style="color:#000;font-size:22px;font-family:Verdana;text-align:end;writing-mode:lr-tb;text-anchor:end;overflow:visible;fill:#75507b;stroke-width:0.2px"
     id="ke5">34,</text>
  <text
     x="245"
     y="30"
     style="color:#000;font-size:22px;font-family:Verdana;text-align:end;writing-mode:lr-tb;text-anchor:end;overflow:visible;fill:#75507b;stroke-width:0.2px"
     id="ke6">34,</text>
  <text
     x="285"
     y="30"
     style="color:#000;font-size:22px;font-family:Verdana;text-align:end;writing-mode:lr-tb;text-anchor:end;overflow:visible;fill:#75507b;stroke-width:0.2px"
     id="ke7">37,</text>
  <text
     x="325"
     y="30"
     style="color:#000;font-size:22px;font-family:Verdana;text-align:end;writing-mode:lr-tb;text-anchor:end;overflow:visible;fill:#75507b;stroke-width:0.2px"
     id="ke8">42,</text>
  <text
     x="365"
     y="30"
     style="color:#000;font-size:22px;font-family:Verdana;text-align:end;writing-mode:lr-tb;text-anchor:end;overflow:visible;fill:#75507b;stroke-width:0.2px"
     id="ke9">46,</text>
  <text
     x="395"
     y="30"
     style="color:#000;font-size:22px;font-family:Verdana;text-align:end;writing-mode:lr-tb;text-anchor:end;overflow:visible;fill:#75507b;stroke-width:0.2px"
     id="ke10">50</text>

  <text
     x="300"
     y="140"
     style="color:#000;font-size:14px;font-family:Verdana;overflow:visible;opacity:0.9;fill:#62a0ea;stroke-width:1"
     id="text34">cara</text>
  <text
     x="300"
     y="155"
     style="color:#000;font-size:14px;font-family:Verdana;overflow:visible;opacity:0.9;fill:#62a0ea;stroke-width:1"
     id="text56">menempatkan</text>
  <text
     x="300"
     y="175"
     style="color:#000;font-size:19px;font-family:Verdana;overflow:visible;opacity:0.9;fill:#62a0ea;stroke-width:0.92"
     id="text32">&quot;46&quot;</text>

  <g
     transform="rotate(7.54959,1946.13,1202.49)"
     id="g44"
     style="fill:#5faeff">
    <path
       d="m -0.5,419.3 c 3.4,-1.5 8.6,-2.8 5.1,-1.8 2.9,-0.3 5.4,-4.2 8.2,-2.1 3.2,1.1 -3.9,2.8 -5,3.7 -2.2,0.9 -5.3,1.7 -4.4,1.4 -1.2,0.6 -2.6,-1 -3.8,-1.3 z"
       style="color:#000;overflow:visible;opacity:0.9;fill:#5faeff;stroke-width:1.13" />
    <path
       d="m 2.4,418.5 c 3.8,2 6.8,5.5 8,9.6 -2.2,0.9 -4.1,1.6 -4.4,-1.7 -0.4,-3 -6.7,-4.8 -5.5,-6.4 0.6,-0.5 1.2,-1 1.9,-1.5 z"
       style="color:#000;overflow:visible;opacity:0.9;fill:#5faeff;stroke-width:1" />
  </g>
  <g
     transform="translate(34.277,-267.378)"
     id="g50"
     style="fill:#5faeff">
    <path
       d="m 158.9,433.9 c 3,-0.3 5.9,-1 8.7,-2.1 -1,0.4 -1.7,0.7 -0.3,0 1.4,-0.1 2.6,-2.3 3.9,-1.4 0.8,0.5 1.7,0.9 2.5,1.4 -1.6,0.9 -3.1,2 -4.9,2.6 -3.2,1.6 -6.8,2.4 -10.4,3 -1.5,0.3 -2.2,0 -1,-1.1 0.5,-0.8 1.1,-1.6 1.6,-2.4 z"
       style="color:#000;overflow:visible;fill:#5faeff;stroke-width:1.2" />
    <path
       d="m 158.6,435.1 c 2.6,0.9 4.2,3.4 5.7,5.5 0.8,1.4 2.6,3.8 2.1,5.1 -1,0.3 -2,0.6 -2.9,0.9 -1,-3.2 -3,-6 -5.4,-8.3 -0.9,-0.9 -2.8,-0.7 -1.1,-1.8 0.5,-0.5 1.1,-1 1.6,-1.5 z"
       style="color:#000;overflow:visible;fill:#5faeff;stroke-width:1" />
  </g>
  <path
     d="m 124.444,171.9 c 63.4,24.1 96.4,19 145,-11.5 59.2,-46.5 71,-118.2 71,-118.2"
     style="fill:none;stroke:#5faeff;stroke-width:3" />
  <path
     d="m 194.144,169.6 c 22.1,2.1 40.1,3.3 70.7,-10.5 24,-10.8 41.1,-37.2 54.3,-58.6"
     style="fill:none;stroke:#5faeff;stroke-width:3" />


</svg>
