<svg width="300" height="275" viewBox="0 -15 300 275" fill="none" xmlns="http://www.w3.org/2000/svg">

<text x="50" y="5" style="font-family:Verdana; font-size:19px; color:#000000; overflow:visible; fill:#b88100; stroke-width:0.52; text-anchor:middle;">Koin 1</text>
<text x="150" y="5" style="font-family:Verdana; font-size:19px; color:#000000; overflow:visible; fill:#b88100; stroke-width:0.52; text-anchor:middle;">Koin 2</text>
<text x="250" y="5" style="font-family:Verdana; font-size:19px; color:#000000; overflow:visible; fill:#b88100; stroke-width:0.52; text-anchor:middle;">Koin 3</text>


<path d="M 50 80 L 6 140 L 50 200" stroke="#25374B" stroke-width=".5"/>
<path d="M 150 50 L 50 80 L 150 110" stroke="#25374B" stroke-width=".5"/>
<path d="M 150 170 L 50 200 L 150 230" stroke="#25374B" stroke-width=".5"/>
<path d="M 250 35 L 150 50 L 250 65" stroke="#25374B" stroke-width=".5"/>
<path d="M 250 95 L 150 110 L 250 125" stroke="#25374B" stroke-width=".5"/>
<path d="M 250 155 L 150 170 L 250 185" stroke="#25374B" stroke-width=".5"/>
<path d="M 250 215 L 150 230 L 250 245" stroke="#25374B" stroke-width=".5"/>

<circle cx="6" cy="140" r="3" fill="#25374B"/>

<!-- Koin 1 -->
<circle cx="50" cy="80" r="12.5" fill="#ffd700" stroke="#ffd700" stroke-width="2"/>
<text x="50" y="87" style="font-family:Verdana; font-size:17px; fill:#25374B; stroke-width:0.5; text-anchor:middle;">A</text>

<circle cx="50" cy="200" r="12.5" fill="#c0c0c0" stroke="#c0c0c0" stroke-width="2"/>
<text x="50" y="207" style="font-family:Verdana; font-size:17px; fill:#25374B; stroke-width:0.5; text-anchor:middle;">G</text>

<!-- Koin 2 -->
<circle cx="150" cy="50" r="12.5" fill="#ffd700" stroke="#ffd700" stroke-width="2"/>
<text x="150" y="57" style="font-family:Verdana; font-size:17px; fill:#25374B; stroke-width:0.5; text-anchor:middle;">A</text>

<circle cx="150" cy="110" r="12.5" fill="#c0c0c0" stroke="#c0c0c0" stroke-width="2"/>
<text x="150" y="117" style="font-family:Verdana; font-size:17px; fill:#25374B; stroke-width:0.5; text-anchor:middle;">G</text>

<circle cx="150" cy="170" r="12.5" fill="#ffd700" stroke="#ffd700" stroke-width="2"/>
<text x="150" y="177" style="font-family:Verdana; font-size:17px; fill:#25374B; stroke-width:0.5; text-anchor:middle;">A</text>

<circle cx="150" cy="230" r="12.5" fill="#c0c0c0" stroke="#c0c0c0" stroke-width="2"/>
<text x="150" y="237" style="font-family:Verdana; font-size:17px; fill:#25374B; stroke-width:0.5; text-anchor:middle;">G</text>

<!-- Koin 3 -->
<circle cx="250" cy="35" r="12.5" fill="#ffd700" stroke="#ffd700" stroke-width="2"/>
<text x="250" y="42" style="font-family:Verdana; font-size:17px; fill:#25374B; stroke-width:0.5; text-anchor:middle;">A</text>

<circle cx="250" cy="65" r="12.5" fill="#c0c0c0" stroke="#c0c0c0" stroke-width="2"/>
<text x="250" y="72" style="font-family:Verdana; font-size:17px; fill:#25374B; stroke-width:0.5; text-anchor:middle;">G</text>

<circle cx="250" cy="95" r="12.5" fill="#ffd700" stroke="#ffd700" stroke-width="2"/>
<text x="250" y="102" style="font-family:Verdana; font-size:17px; fill:#25374B; stroke-width:0.5; text-anchor:middle;">A</text>

<circle cx="250" cy="125" r="12.5" fill="#c0c0c0" stroke="#c0c0c0" stroke-width="2"/>
<text x="250" y="132" style="font-family:Verdana; font-size:17px; fill:#25374B; stroke-width:0.5; text-anchor:middle;">G</text>

<circle cx="250" cy="155" r="12.5" fill="#ffd700" stroke="#ffd700" stroke-width="2"/>
<text x="250" y="162" style="font-family:Verdana; font-size:17px; fill:#25374B; stroke-width:0.5; text-anchor:middle;">A</text>

<circle cx="250" cy="185" r="12.5" fill="#c0c0c0" stroke="#c0c0c0" stroke-width="2"/>
<text x="250" y="192" style="font-family:Verdana; font-size:17px; fill:#25374B; stroke-width:0.5; text-anchor:middle;">G</text>

<circle cx="250" cy="215" r="12.5" fill="#ffd700" stroke="#ffd700" stroke-width="2"/>
<text x="250" y="222" style="font-family:Verdana; font-size:17px; fill:#25374B; stroke-width:0.5; text-anchor:middle;">A</text>

<circle cx="250" cy="245" r="12.5" fill="#c0c0c0" stroke="#c0c0c0" stroke-width="2"/>
<text x="250" y="252" style="font-family:Verdana; font-size:17px; fill:#25374B; stroke-width:0.5; text-anchor:middle;">G</text>

</svg>
